<?xml version="1.0" encoding="utf-8"?>
<svg xmlns="http://www.w3.org/2000/svg" viewBox="0 0 1024 1024">
  <path d="M 495.766 121.543 C 496.926 121.543 498.096 121.543 499.286 121.533 C 501.736 121.533 504.186 121.533 506.636 121.533 C 510.296 121.533 513.946 121.513 517.606 121.493 C 603.456 121.283 687.658 150.863 754.158 205.709 C 753.828 206.369 753.498 207.029 753.158 207.709 C 752.498 207.709 751.838 207.709 751.158 207.709 C 751.008 208.373 750.868 209.037 750.718 209.721 C 749.338 215.139 748.428 217.827 743.718 221.116 C 738.348 226.608 736.598 236.262 736.158 243.709 C 731.088 240.547 726.308 237.082 721.618 233.399 C 674.508 196.551 619.146 173.483 560.036 165.033 C 558.796 164.853 558.796 164.853 557.546 164.663 C 541.866 162.573 525.956 162.473 510.156 162.463 C 509.216 162.463 508.276 162.463 507.306 162.463 C 492.046 162.483 477.256 163.263 462.156 165.713 C 461.066 165.883 459.966 166.053 458.836 166.213 C 407.916 173.993 357.796 193.033 316.156 223.709 C 315.486 224.202 314.816 224.694 314.116 225.202 C 305.586 231.454 297.266 237.908 289.156 244.709 C 288.176 245.506 287.196 246.303 286.186 247.123 C 278.076 253.78 270.626 261.052 263.216 268.459 C 262.726 268.955 262.226 269.45 261.716 269.961 C 255.976 275.697 250.386 281.51 245.156 287.709 C 244.606 288.348 244.066 288.987 243.506 289.645 C 235.296 299.301 227.666 309.232 220.526 319.701 C 219.236 321.591 217.926 323.466 216.606 325.338 C 185.816 369.668 168.756 422.371 163.156 475.709 C 163.066 476.498 162.966 477.286 162.866 478.098 C 152.966 568.434 183.106 660.036 238.626 730.854 C 240.766 733.503 242.956 736.108 245.156 738.709 C 246.366 740.194 246.366 740.194 247.596 741.709 C 254.106 749.612 261.176 756.915 268.406 764.147 C 268.876 764.619 269.346 765.092 269.836 765.579 C 275.436 771.175 281.126 776.586 287.156 781.709 C 287.996 782.435 287.996 782.435 288.846 783.174 C 306.096 798.131 325.876 811.23 346.156 821.709 C 347.096 822.198 347.096 822.198 348.046 822.697 C 352.706 825.125 357.416 827.441 362.156 829.709 C 362.886 830.06 363.606 830.41 364.356 830.771 C 391.876 843.95 421.346 853.637 451.536 858.293 C 458.556 859.458 463.116 862.362 468.096 867.459 C 469.116 868.496 469.116 868.496 470.156 869.553 C 472.086 871.626 473.866 873.771 475.656 875.959 C 480.346 881.434 486.546 884.393 493.726 885.022 C 504.256 884.791 510.956 878.731 518.156 871.709 C 519.526 870.404 520.896 869.112 522.286 867.834 C 523.126 867.034 523.126 867.034 523.976 866.217 C 531.116 861.282 539.146 860.955 547.536 860.209 C 558.516 859.122 569.326 857.833 580.156 855.709 C 581.076 855.536 582.006 855.363 582.956 855.185 C 613.246 849.421 642.458 839.194 670.158 825.709 C 671.048 825.279 671.928 824.849 672.838 824.406 C 695.598 813.178 717.268 798.981 736.348 782.247 C 738.638 780.299 740.998 778.436 743.348 776.557 C 749.348 771.657 754.828 766.334 760.288 760.834 C 761.208 759.918 762.128 759.001 763.088 758.057 C 769.208 751.916 774.748 745.483 780.158 738.709 C 781.038 737.67 781.918 736.635 782.798 735.608 C 829.258 681.536 855.879 611.203 862.159 540.709 C 862.271 539.462 862.383 538.214 862.499 536.928 C 866.441 484.656 859.449 427.404 837.288 379.448 C 834.868 373.731 834.848 369.702 836.158 363.709 C 836.338 362.799 836.518 361.89 836.698 360.952 C 837.288 358.048 837.928 355.161 838.598 352.272 C 840.118 345.547 841.548 338.836 842.708 332.039 C 843.159 329.709 843.159 329.709 844.221 326.334 C 845.635 320.867 845.837 315.333 846.159 309.709 C 875.458 345.392 899.281 428.2 903.159 476.709 C 903.245 477.778 903.245 477.778 903.334 478.869 C 908.22 542.683 899.561 612.696 871.12 670.724 C 870.085 672.862 869.104 675.02 868.127 677.186 C 853.171 710.09 832.858 740.473 809.158 767.709 C 808.208 768.813 808.208 768.813 807.228 769.94 C 805.558 771.874 803.858 773.792 802.158 775.709 C 801.558 776.405 800.948 777.102 800.328 777.819 C 795.288 783.552 789.988 788.99 784.598 794.397 C 783.888 795.11 783.178 795.822 782.448 796.557 C 777.848 801.145 773.108 805.5 768.158 809.709 C 767.518 810.253 766.888 810.797 766.228 811.358 C 714.608 855.099 655.028 882.446 589.156 896.709 C 588.326 896.89 587.506 897.07 586.656 897.256 C 572.046 900.366 557.006 901.394 542.156 902.709 C 540.546 902.857 540.546 902.857 538.906 903.008 C 530.306 903.745 521.726 903.951 513.096 903.959 C 512.346 903.96 511.606 903.961 510.836 903.962 C 424.306 903.885 338.566 875.648 271.156 820.709 C 269.866 819.686 268.586 818.664 267.296 817.643 C 248.956 803.033 230.596 786.816 216.166 768.28 C 214.296 765.886 212.336 763.587 210.346 761.295 C 164.756 708.671 135.796 641.147 124.966 572.709 C 124.816 571.739 124.656 570.768 124.496 569.767 C 121.616 550.507 120.806 531.356 120.846 511.898 C 120.846 508.044 120.816 504.19 120.796 500.336 C 120.546 403.338 162.466 315.012 237.306 235.447 C 237.996 234.75 238.696 234.053 239.406 233.334 C 240.056 232.68 240.706 232.026 241.376 231.352 C 245.206 227.537 249.136 223.902 253.236 220.371 C 255.016 218.835 256.766 217.278 258.516 215.709 C 273.986 201.958 290.716 189.833 308.156 178.703 C 309.086 178.113 309.086 178.113 310.026 177.513 C 364.806 142.853 430.726 121.613 495.766 121.543 Z" fill="black" style="stroke-width: 0px;"/>
  <path d="M 797.158 138.713 C 803.328 139.203 809.018 140.643 814.948 142.373 C 815.858 142.633 816.768 142.893 817.708 143.153 C 819.618 143.703 821.528 144.253 823.428 144.813 C 826.348 145.653 829.258 146.493 832.178 147.323 C 834.038 147.863 835.898 148.393 837.768 148.933 C 838.628 149.183 839.498 149.433 840.398 149.683 C 844.406 150.853 848.316 152.053 852.159 153.713 C 851.587 159.183 850.6 164.283 849.042 169.543 C 848.6 171.073 848.158 172.613 847.716 174.153 C 847.483 174.953 847.249 175.753 847.009 176.583 C 845.757 180.893 844.532 185.213 843.307 189.543 C 843.051 190.443 842.796 191.343 842.532 192.273 C 839.828 201.825 837.208 211.395 834.648 220.986 C 834.158 222.836 833.658 224.684 833.158 226.531 C 832.448 229.12 831.768 231.713 831.078 234.307 C 830.868 235.071 830.658 235.835 830.438 236.622 C 829.308 240.997 829.058 244.314 830.158 248.709 L 841.158 251.709 C 842.284 257.337 842.284 257.337 841.198 260.881 C 840.978 261.628 840.748 262.374 840.518 263.143 C 840.278 263.907 840.038 264.672 839.788 265.459 C 839.548 266.239 839.318 267.019 839.068 267.823 C 837.318 273.548 837.318 273.548 836.158 274.709 C 829.368 274.659 823.028 273.319 816.568 271.33 C 813.928 270.543 813.928 270.543 810.158 270.709 C 809.828 273.349 809.498 275.989 809.158 278.709 C 809.858 278.807 810.568 278.905 811.288 279.006 C 819.498 280.249 827.228 282.291 835.158 284.709 C 836.128 289.107 836.108 292.141 834.848 296.459 C 834.578 297.403 834.318 298.347 834.048 299.319 C 833.158 301.709 833.158 301.709 831.158 303.709 C 824.618 304.24 818.948 302.901 812.658 301.209 C 811.738 300.971 810.818 300.732 809.878 300.487 C 807.638 299.903 805.398 299.307 803.158 298.709 C 802.828 301.679 802.498 304.649 802.158 307.709 C 803.288 307.792 804.428 307.874 805.598 307.959 C 810.498 308.5 815.238 309.537 820.038 310.647 C 821.158 310.902 821.158 310.902 822.308 311.161 C 825.738 311.976 828.198 312.734 831.158 314.709 C 830.748 320.885 829.688 326.038 827.158 331.709 C 820.038 335.27 808.068 330.389 800.688 328.549 C 797.438 327.632 797.438 327.632 795.158 327.709 L 795.158 334.709 C 804.168 337.225 813.118 339.393 822.308 341.096 C 825.158 341.709 825.158 341.709 826.158 342.709 C 825.658 348.262 824.598 353.54 823.228 358.936 C 823.048 359.687 822.858 360.439 822.658 361.213 C 822.258 362.788 821.858 364.363 821.458 365.937 C 820.848 368.332 820.258 370.731 819.658 373.131 C 819.268 374.671 818.878 376.21 818.478 377.748 C 818.308 378.458 818.138 379.167 817.958 379.898 C 816.758 384.48 815.078 387.978 812.158 391.709 C 806.218 393.583 799.328 391.168 793.608 389.366 C 790.938 388.537 790.938 388.537 787.158 388.709 C 783.638 399.453 780.668 410.251 777.998 421.234 C 771.048 449.749 763.548 478.126 756.008 506.489 C 755.248 509.373 754.488 512.258 753.728 515.143 C 742.398 558.094 724.328 594.934 694.158 627.709 C 692.488 629.584 690.838 631.472 689.198 633.373 C 687.508 635.304 685.808 637.208 684.088 639.108 C 682.988 640.35 681.888 641.592 680.788 642.834 C 680.248 643.421 679.708 644.007 679.158 644.611 C 676.038 648.16 674.148 650.767 674.158 655.709 C 675.118 657.634 675.118 657.634 676.658 659.147 C 678.838 661.914 679.148 662.486 679.288 666.209 C 677.898 670.523 675.968 673.174 673.158 676.709 C 667.798 676.394 665.508 673.438 662.098 669.709 C 657.898 664.965 657.898 664.965 652.158 662.709 C 651.498 664.029 650.838 665.349 650.158 666.709 C 650.638 667.168 651.128 667.626 651.628 668.099 C 653.818 670.185 655.988 672.29 658.158 674.397 C 658.918 675.118 659.688 675.839 660.468 676.582 C 661.198 677.288 661.918 677.994 662.658 678.721 C 663.668 679.687 663.668 679.687 664.688 680.673 C 666.538 683.23 666.568 684.619 666.158 687.709 C 664.628 690.166 664.628 690.166 662.658 692.522 C 662.008 693.312 661.358 694.102 660.688 694.916 C 660.188 695.508 659.678 696.1 659.158 696.709 C 655.818 696.757 653.728 696.189 651.168 694.033 C 648.968 691.79 646.868 689.492 644.788 687.147 C 644.048 686.341 643.308 685.534 642.558 684.703 C 640.738 682.716 638.948 680.718 637.158 678.709 C 633.788 680.229 632.548 681.23 631.158 684.709 C 633.198 686.775 635.238 688.837 637.288 690.897 C 638.138 691.764 638.138 691.764 639.008 692.649 C 641.758 695.409 644.498 698.033 647.548 700.459 C 650.158 702.709 650.158 702.709 650.848 705.522 C 649.928 709.764 648.308 713.643 645.158 716.709 C 641.858 717.361 640.508 716.927 637.648 715.127 C 636.788 714.391 635.928 713.655 635.038 712.897 C 633.608 711.684 633.608 711.684 632.148 710.448 C 630.058 708.581 628.078 706.642 626.138 704.627 C 625.648 704.121 625.158 703.615 624.658 703.093 C 623.278 701.644 621.926 700.173 620.566 698.702 C 618.396 696.466 618.396 696.466 615.986 696.76 C 613.176 698.217 611.816 700.058 610.156 702.709 C 610.696 707.346 613.926 709.724 617.156 712.772 C 630.798 725.994 630.798 725.994 634.158 732.709 C 598.866 777.314 598.866 777.314 578.156 794.709 C 576.946 795.743 575.736 796.778 574.536 797.813 C 573.586 798.626 573.586 798.626 572.616 799.455 C 572.136 799.869 571.656 800.283 571.156 800.709 C 570.546 800.098 569.936 799.488 569.316 798.858 C 563.546 793.074 557.786 787.293 552.016 781.514 C 549.056 778.544 546.086 775.573 543.126 772.6 C 540.266 769.725 537.396 766.853 534.526 763.983 C 533.436 762.892 532.356 761.801 531.266 760.709 C 525.916 755.331 520.556 750.012 514.756 745.107 C 512.316 742.969 510.186 740.58 508.036 738.147 C 504.906 734.626 501.706 731.23 498.306 727.963 C 497.656 727.338 497.016 726.713 496.346 726.069 C 495.076 724.845 493.786 723.632 492.496 722.43 C 490.736 720.741 490.736 720.741 488.156 717.709 C 488.416 714.404 489.736 712.781 492.076 710.537 C 492.666 709.96 493.256 709.382 493.866 708.786 C 494.506 708.183 495.136 707.58 495.786 706.959 C 497.076 705.702 498.366 704.443 499.646 703.182 C 500.266 702.58 500.876 701.978 501.506 701.358 C 503.426 699.445 505.216 697.458 506.976 695.397 C 513.076 688.239 519.806 682.032 527.146 676.159 C 530.526 673.412 533.806 670.567 537.096 667.709 C 543.236 662.395 549.586 657.476 556.156 652.709 C 559.086 654.042 561.256 655.52 563.586 657.729 C 564.236 658.333 564.876 658.938 565.536 659.561 C 566.216 660.208 566.896 660.855 567.596 661.522 C 568.296 662.184 568.996 662.846 569.716 663.528 C 576.316 669.8 582.766 676.221 589.156 682.709 C 592.486 681.157 594.646 679.403 597.156 676.709 C 595.676 673.223 593.696 671.067 590.966 668.459 C 588.046 665.61 585.246 662.746 582.596 659.647 C 578.996 655.448 575.116 651.571 571.156 647.709 C 571.556 647.25 571.956 646.792 572.366 646.319 C 573.156 645.398 573.156 645.398 573.966 644.459 C 574.796 643.506 574.796 643.506 575.636 642.534 C 577.256 640.671 577.256 640.671 578.716 638.272 C 580.156 636.709 580.156 636.709 582.376 636.274 C 586.386 636.901 588.406 639.298 591.116 642.108 C 591.666 642.658 592.206 643.208 592.776 643.775 C 593.926 644.938 595.076 646.106 596.216 647.281 C 597.966 649.083 599.736 650.866 601.516 652.647 C 602.636 653.779 603.746 654.911 604.866 656.045 C 605.656 656.85 605.656 656.85 606.476 657.671 C 610.156 661.476 610.156 661.476 610.156 663.709 C 612.726 662.499 612.726 662.499 615.156 660.709 C 615.586 656.694 615.586 656.694 613.126 654.315 C 612.196 653.446 611.266 652.577 610.306 651.682 C 609.306 650.715 608.296 649.749 607.286 648.782 C 605.686 647.271 604.086 645.766 602.486 644.266 C 600.936 642.813 599.396 641.343 597.876 639.869 C 596.946 638.999 596.016 638.129 595.066 637.233 C 593.156 634.709 593.156 634.709 593.256 631.999 C 594.356 629.215 595.496 628.148 597.906 626.397 C 598.586 625.885 599.256 625.373 599.956 624.846 C 602.706 623.427 604.086 623.299 607.156 623.709 C 609.656 625.637 609.656 625.637 612.236 628.303 C 612.696 628.769 613.156 629.235 613.626 629.716 C 615.086 631.202 616.526 632.705 617.966 634.209 C 618.956 635.222 619.946 636.234 620.936 637.244 C 623.358 639.72 625.758 642.21 628.158 644.709 C 629.478 644.049 630.798 643.389 632.158 642.709 C 632.588 638.739 632.588 638.739 630.308 636.483 C 629.458 635.691 628.618 634.9 627.748 634.084 C 626.388 632.777 626.388 632.777 624.998 631.444 C 623.058 629.619 621.116 627.796 619.176 625.975 C 618.276 625.104 617.366 624.232 616.436 623.334 C 615.586 622.543 614.746 621.751 613.876 620.936 C 612.156 618.709 612.156 618.709 612.286 616.515 C 614.016 612.923 617.636 611.285 621.156 609.709 C 623.908 609.647 623.908 609.647 626.158 610.709 C 626.798 611.411 627.438 612.112 628.098 612.834 C 628.778 613.453 629.458 614.072 630.158 614.709 C 639.428 614.19 646.838 606.507 652.818 599.959 C 654.158 598.709 654.158 598.709 656.158 598.709 C 656.558 597.81 656.558 597.81 656.968 596.893 C 658.178 594.678 659.308 593.453 661.158 591.772 C 675.138 578.11 684.948 560.253 693.158 542.709 C 693.678 541.618 694.198 540.526 694.738 539.401 C 704.828 517.221 709.648 492.571 715.598 469.037 C 717.448 461.734 719.308 454.435 721.168 447.136 C 721.638 445.323 722.098 443.51 722.558 441.696 C 726.608 425.802 730.748 409.932 734.968 394.084 C 735.248 393.056 735.518 392.027 735.798 390.967 C 737.248 385.546 738.698 380.127 740.158 374.709 C 738.998 374.467 737.848 374.225 736.648 373.975 C 735.108 373.637 733.568 373.299 732.038 372.959 C 731.268 372.802 730.508 372.645 729.728 372.483 C 724.858 371.391 720.888 370.215 717.158 366.709 C 715.548 360.721 716.418 356.113 718.138 350.264 C 718.358 349.491 718.578 348.717 718.798 347.92 C 719.258 346.296 719.718 344.674 720.188 343.055 C 720.908 340.588 721.598 338.117 722.288 335.643 C 722.738 334.058 723.188 332.473 723.638 330.889 C 723.848 330.158 724.058 329.426 724.268 328.673 C 725.508 324.428 727.048 320.622 729.158 316.709 C 735.398 317.284 740.918 318.725 746.848 320.709 C 753.898 323.088 753.898 323.088 761.158 324.709 L 763.158 316.709 C 762.468 316.551 761.778 316.392 761.058 316.229 C 754.998 314.782 749.028 313.128 743.098 311.209 C 741.228 310.606 741.228 310.606 739.308 309.991 C 734.798 308.157 734.798 308.157 733.158 305.709 C 733.368 299.473 734.598 293.267 739.158 288.709 C 745.708 289.056 751.878 291.323 758.098 293.272 C 759.158 293.601 760.228 293.931 761.328 294.27 C 763.938 295.078 766.548 295.892 769.158 296.709 L 770.158 288.709 C 769.138 288.395 768.128 288.08 767.078 287.756 C 742.608 280.158 742.608 280.158 741.158 278.709 C 741.568 272.887 742.578 267.969 745.158 262.709 C 749.268 261.199 752.418 262.025 756.548 263.143 C 757.758 263.462 758.958 263.781 760.198 264.11 C 761.438 264.452 762.688 264.794 763.968 265.147 C 765.238 265.485 766.498 265.824 767.808 266.172 C 770.928 267.008 774.038 267.854 777.158 268.709 C 777.158 265.739 777.158 262.769 777.158 259.709 C 776.458 259.611 775.748 259.513 775.028 259.412 C 753.618 256.171 753.618 256.171 750.158 252.709 C 749.708 245.694 750.538 239.279 753.158 232.709 C 754.768 230.889 754.768 230.889 756.158 229.709 C 756.748 229.914 757.338 230.119 757.948 230.33 C 758.738 230.6 759.528 230.869 760.348 231.147 C 761.128 231.414 761.898 231.681 762.698 231.955 C 765.168 232.714 767.628 233.22 770.158 233.709 C 770.398 232.729 770.638 231.749 770.888 230.739 C 773.208 221.324 775.708 211.97 778.348 202.639 C 778.738 201.261 779.128 199.882 779.508 198.504 C 780.518 194.923 781.528 191.343 782.548 187.753 C 783.568 184.143 784.588 180.523 785.608 176.903 C 789.398 163.443 789.398 163.443 791.138 157.343 C 791.848 154.803 792.568 152.263 793.268 149.723 C 793.638 148.433 793.998 147.143 794.358 145.853 C 794.678 144.703 794.998 143.543 795.328 142.353 C 796.158 139.713 796.158 139.713 797.158 138.713 Z" fill="black" style="stroke-width: 0px;"/>
  <path d="M 482.156 727.709 C 485.006 729.001 487.056 730.358 489.256 732.573 C 490.086 733.409 490.086 733.409 490.936 734.262 C 491.506 734.843 492.076 735.424 492.656 736.022 C 493.226 736.591 493.796 737.16 494.386 737.746 C 496.756 740.15 499.006 742.506 501.066 745.19 C 502.826 747.309 504.436 748.856 506.536 750.613 C 512.406 755.709 517.836 761.258 523.316 766.768 C 524.466 767.924 525.626 769.08 526.776 770.235 C 529.796 773.253 532.806 776.274 535.816 779.295 C 538.896 782.388 541.986 785.477 545.066 788.567 C 551.096 794.612 557.126 800.659 563.156 806.709 C 562.756 807.175 562.356 807.64 561.946 808.12 C 561.406 808.738 560.876 809.357 560.326 809.995 C 559.546 810.909 559.546 810.909 558.736 811.842 C 557.716 813.048 556.706 814.267 555.726 815.5 C 554.576 816.936 553.366 818.327 552.156 819.709 C 551.496 819.709 550.836 819.709 550.156 819.709 C 549.776 820.58 549.776 820.58 549.386 821.468 C 548.036 823.942 546.526 825.587 544.526 827.573 C 543.806 828.295 543.076 829.018 542.336 829.762 C 541.576 830.508 540.816 831.254 540.036 832.022 C 539.296 832.756 538.566 833.49 537.806 834.246 C 533.696 838.327 529.476 842.21 525.086 845.992 C 521.836 848.89 518.826 852.027 515.786 855.147 C 499.986 871.041 499.986 871.041 493.906 871.522 C 488.566 870.364 485.886 868.191 482.726 863.647 C 482.016 861.209 482.336 860.101 483.156 857.709 C 488.826 849.831 496.526 842.645 504.156 836.709 C 505.846 835.065 507.516 833.396 509.156 831.709 C 510.106 830.851 510.106 830.851 511.066 829.975 C 511.716 829.372 512.366 828.768 513.036 828.147 C 513.656 827.589 514.266 827.031 514.906 826.455 C 516.426 824.762 516.426 824.762 515.856 822.495 C 515.626 821.905 515.396 821.316 515.156 820.709 C 513.366 819.893 513.366 819.893 511.156 819.709 C 509.146 821.07 509.146 821.07 507.346 823.147 C 506.726 823.806 506.096 824.464 505.456 825.143 C 504.186 826.563 502.916 827.987 501.676 829.431 C 496.826 835.058 491.706 840.377 486.476 845.647 C 485.216 846.939 485.216 846.939 483.926 848.258 C 483.106 849.076 482.296 849.894 481.466 850.737 C 480.726 851.477 479.996 852.216 479.246 852.979 C 477.116 854.743 475.906 855.518 473.156 855.709 C 470.906 853.772 470.906 853.772 469.156 851.709 C 470.536 848.612 472.096 846.548 474.526 844.198 C 475.546 843.196 475.546 843.196 476.596 842.175 C 477.336 841.464 478.066 840.754 478.826 840.022 C 480.376 838.504 481.926 836.986 483.466 835.467 C 485.916 833.079 488.366 830.694 490.816 828.318 C 493.186 826.022 495.536 823.711 497.886 821.397 C 498.636 820.686 499.376 819.976 500.136 819.244 C 500.816 818.576 501.486 817.909 502.186 817.221 C 502.786 816.638 503.386 816.055 504.006 815.454 C 505.416 813.743 505.416 813.743 504.846 811.49 C 504.616 810.902 504.396 810.315 504.156 809.709 C 502.356 808.914 502.356 808.914 500.156 808.709 C 498.196 809.945 498.196 809.945 496.406 811.901 C 495.316 812.982 495.316 812.982 494.216 814.085 C 493.446 814.877 492.686 815.67 491.896 816.487 C 491.096 817.287 490.306 818.088 489.486 818.912 C 486.946 821.479 484.426 824.063 481.906 826.647 C 480.196 828.387 478.476 830.126 476.756 831.864 C 472.546 836.133 468.346 840.416 464.156 844.709 C 461.536 843.661 460.366 843.06 458.906 840.584 C 458.666 839.966 458.416 839.347 458.156 838.709 C 458.596 838.284 459.036 837.859 459.496 837.421 C 464.076 832.997 468.626 828.549 473.166 824.085 C 474.866 822.422 476.566 820.766 478.286 819.116 C 480.736 816.744 483.166 814.35 485.596 811.952 C 486.376 811.217 487.146 810.482 487.936 809.725 C 489.876 807.788 491.636 805.987 493.156 803.709 C 493.346 800.295 493.346 800.295 492.156 797.709 C 489.186 797.399 489.186 797.399 487.436 799.076 C 486.796 799.716 486.166 800.355 485.516 801.014 C 484.796 801.735 484.076 802.456 483.336 803.198 C 482.556 803.986 481.786 804.773 480.996 805.584 C 479.796 806.783 479.796 806.783 478.586 808.006 C 476.036 810.567 473.506 813.138 470.976 815.709 C 469.256 817.444 467.536 819.179 465.806 820.912 C 461.586 825.17 457.366 829.437 453.156 833.709 C 449.376 832.195 449.156 831.695 447.156 827.709 C 459.366 815.499 471.576 803.289 484.156 790.709 C 483.496 789.389 482.836 788.069 482.156 786.709 C 478.036 786.278 478.036 786.278 475.266 789.169 C 474.136 790.298 473.026 791.439 471.926 792.588 C 471.326 793.193 470.736 793.798 470.116 794.421 C 468.206 796.362 466.306 798.316 464.406 800.272 C 461.916 802.819 459.426 805.361 456.926 807.901 C 456.326 808.508 455.736 809.115 455.116 809.741 C 444.426 820.574 444.426 820.574 440.156 822.709 C 438.836 821.389 437.516 820.069 436.156 818.709 C 437.556 815.572 439.166 813.455 441.596 811.042 C 442.296 810.342 443.006 809.642 443.726 808.92 C 444.476 808.175 445.236 807.43 446.006 806.662 C 446.786 805.891 447.556 805.12 448.356 804.325 C 450.826 801.865 453.306 799.412 455.786 796.959 C 457.466 795.292 459.136 793.624 460.816 791.955 C 464.926 787.868 469.036 783.787 473.156 779.709 C 472.496 778.389 471.836 777.069 471.156 775.709 C 467.116 775.275 467.116 775.275 464.646 777.87 C 463.746 778.827 462.836 779.785 461.906 780.772 C 458.836 784.008 455.776 787.084 452.396 789.991 C 447.586 794.144 443.126 798.63 438.656 803.147 C 437.426 804.387 437.426 804.387 436.166 805.653 C 434.166 807.669 432.156 809.688 430.156 811.709 C 426.486 810.019 424.766 808.286 422.406 804.959 C 421.796 804.119 421.186 803.278 420.546 802.412 C 418.796 798.998 418.396 797.502 419.156 793.709 C 424.036 786.996 430.486 781.281 436.376 775.471 C 437.346 774.5 438.326 773.529 439.306 772.558 C 443.406 768.475 447.526 764.398 451.636 760.326 C 454.176 757.818 456.706 755.305 459.226 752.79 C 460.636 751.393 462.046 750.002 463.456 748.611 C 468.786 743.306 473.686 737.821 478.366 731.937 C 480.156 729.709 480.156 729.709 482.156 727.709 Z" fill="black" style="stroke-width: 0px;"/>
  <path d="M 134.156 411.709 L 135.156 413.709 C 134.496 413.709 133.836 413.709 133.156 413.709 C 133.346 414.266 133.526 414.823 133.716 415.397 C 134.236 418.108 133.826 420.053 133.156 422.709 C 132.496 422.709 131.836 422.709 131.156 422.709 C 131.366 423.266 131.566 423.823 131.786 424.397 C 132.266 427.369 131.426 429.029 130.156 431.709 C 129.496 431.709 128.836 431.709 128.156 431.709 C 130.436 418.514 130.436 418.514 132.156 412.709 L 134.156 411.709 Z" fill="black" style="stroke-width: 0px;"/>
  <path d="M 727.158 426.709 L 729.158 427.709 C 728.488 431.043 727.828 434.376 727.158 437.709 C 727.008 438.582 726.868 439.455 726.718 440.354 C 726.158 442.709 726.158 442.709 724.158 445.709 C 723.128 441.123 723.308 437.921 724.538 433.397 C 724.948 431.825 724.948 431.825 725.368 430.221 C 726.158 427.709 726.158 427.709 727.158 426.709 Z" fill="black" style="stroke-width: 0px;"/>
  <path d="M 901.159 531.709 L 903.159 532.709 C 903.24 534.334 903.298 535.959 903.346 537.584 C 903.381 538.489 903.416 539.394 903.452 540.327 C 903.355 541.113 903.258 541.899 903.159 542.709 C 902.169 543.369 901.179 544.029 900.159 544.709 C 900.132 542.73 900.112 540.751 900.096 538.772 C 900.085 537.67 900.073 536.568 900.061 535.432 C 900.159 532.709 900.159 532.709 901.159 531.709 Z" fill="black" style="stroke-width: 0px;"/>
  <path d="M 122.156 526.709 C 124.186 530.059 124.376 532.579 124.286 536.459 C 124.266 537.444 124.246 538.429 124.226 539.444 C 124.206 540.191 124.176 540.939 124.156 541.709 C 120.566 537.491 120.816 535.11 121.156 529.709 C 121.486 528.719 121.816 527.729 122.156 526.709 Z" fill="black" style="stroke-width: 0px;"/>
  <path d="M 709.158 496.709 L 711.158 497.709 C 710.908 499.191 710.628 500.67 710.348 502.147 C 710.198 502.971 710.048 503.794 709.888 504.643 C 709.648 505.325 709.408 506.007 709.158 506.709 C 708.168 507.039 707.178 507.369 706.158 507.709 C 706.468 506.063 706.778 504.417 707.098 502.772 C 707.268 501.855 707.448 500.939 707.628 499.995 C 708.158 497.709 708.158 497.709 709.158 496.709 Z" fill="black" style="stroke-width: 0px;"/>
  <path d="M 306.156 179.703 L 308.156 180.703 C 307.166 180.703 306.176 180.703 305.156 180.703 L 306.156 179.703 Z M 303.156 181.703 L 305.156 182.703 C 304.166 182.703 303.176 182.703 302.156 182.703 L 303.156 181.703 Z M 302.156 183.703 L 302.156 186.703 C 300.506 187.363 298.856 188.023 297.156 188.703 C 297.156 187.713 297.156 186.723 297.156 185.703 C 300.156 183.703 300.156 183.703 302.156 183.703 Z M 294.156 187.703 C 296.156 188.703 296.156 188.703 296.156 188.703 L 294.156 187.703 Z" fill="black" style="stroke-width: 0px;"/>
  <path d="M 741.158 377.709 C 742.108 379.879 742.298 381.273 741.558 383.534 C 740.798 385.278 739.978 386.996 739.158 388.709 C 738.498 388.379 737.838 388.049 737.158 387.709 C 737.438 386.228 737.738 384.749 738.038 383.272 C 738.198 382.448 738.358 381.624 738.528 380.776 C 738.738 380.094 738.948 379.412 739.158 378.709 L 741.158 377.709 Z" fill="black" style="stroke-width: 0px;"/>
  <path d="M 136.156 400.709 L 138.156 401.709 C 137.166 404.679 136.176 407.649 135.156 410.709 C 134.496 410.709 133.836 410.709 133.156 410.709 C 133.466 409.229 133.776 407.75 134.096 406.272 C 134.266 405.448 134.446 404.624 134.626 403.776 C 135.156 401.709 135.156 401.709 136.156 400.709 Z" fill="black" style="stroke-width: 0px;"/>
  <path d="M 672.158 155.713 C 675.648 156.823 678.938 157.983 682.158 159.713 L 682.158 161.713 C 678.368 160.713 675.448 159.903 672.158 157.713 C 672.158 157.053 672.158 156.393 672.158 155.713 Z" fill="black" style="stroke-width: 0px;"/>
  <path d="M 849.159 613.709 L 851.159 613.709 L 851.159 615.709 C 850.499 615.709 849.839 615.709 849.159 615.709 L 849.159 622.709 C 848.169 622.709 847.179 622.709 846.159 622.709 C 847.149 619.739 848.139 616.769 849.159 613.709 Z" fill="black" style="stroke-width: 0px;"/>
  <path d="M 343.156 821.709 C 346.506 822.267 349.196 823.061 352.156 824.709 L 352.156 826.709 C 349.186 825.719 346.216 824.729 343.156 823.709 C 343.156 823.049 343.156 822.389 343.156 821.709 Z" fill="black" style="stroke-width: 0px;"/>
  <path d="M 482.156 814.709 L 484.156 815.709 C 480.536 820.584 480.536 820.584 477.156 821.709 C 478.456 818.825 479.816 816.837 482.156 814.709 Z" fill="black" style="stroke-width: 0px;"/>
  <path d="M 315.156 804.709 C 319.036 805.283 321.236 807.196 324.156 809.709 C 320.816 809.152 318.126 808.358 315.156 806.709 C 315.156 806.049 315.156 805.389 315.156 804.709 Z" fill="black" style="stroke-width: 0px;"/>
  <path d="M 140.156 633.709 L 143.156 633.709 C 143.786 636.022 143.786 636.022 144.156 638.709 C 143.166 640.194 143.166 640.194 142.156 641.709 C 141.496 639.069 140.836 636.429 140.156 633.709 Z" fill="black" style="stroke-width: 0px;"/>
  <path d="M 772.158 226.709 L 774.158 227.709 C 773.408 230.647 773.408 230.647 772.158 233.709 C 770.038 234.584 770.038 234.584 768.158 234.709 L 770.158 233.709 C 770.888 231.395 771.558 229.061 772.158 226.709 Z" fill="black" style="stroke-width: 0px;"/>
  <path d="M 434.775 202.182 L 436.855 201.661 C 460.983 195.668 484.962 192.667 509.868 192.712 C 510.577 192.709 511.293 192.705 512.019 192.707 C 561.085 192.809 609.333 204.859 652.482 228.747 C 653.872 229.491 653.872 229.491 655.298 230.248 C 672.715 239.568 672.715 239.568 674.979 244.493 C 675.693 251.623 668.346 260.25 664.788 266.263 C 663.745 268.022 662.718 269.784 661.676 271.55 C 661.025 272.67 660.358 273.792 659.698 274.913 C 659.393 275.438 659.087 275.964 658.762 276.508 C 656.803 279.816 655.365 281.219 651.818 282.73 C 647.392 283.233 644.906 281.438 641.187 279.135 C 635.772 275.788 630.387 272.758 624.612 270.079 C 622.411 269.029 620.297 267.896 618.174 266.698 C 585.72 249.422 544.837 243.405 508.659 243.855 C 508.066 243.861 507.466 243.869 506.85 243.876 C 494.123 244.029 481.671 245.377 469.076 247.146 C 468.404 247.229 467.732 247.312 467.044 247.396 C 460.876 248.187 454.881 249.701 448.862 251.218 C 448.296 251.359 447.729 251.502 447.148 251.648 C 437.491 254.084 428.128 256.966 418.836 260.563 C 418.24 260.783 417.652 261.002 417.041 261.23 C 390.049 271.263 364.371 285.918 342.477 304.718 C 341.86 305.249 341.234 305.782 340.596 306.329 C 323.997 320.654 308.885 336.36 297.405 355.222 C 297.079 355.761 296.744 356.303 296.406 356.859 C 295.372 358.563 294.349 360.269 293.326 361.98 C 293.012 362.505 292.698 363.03 292.372 363.572 C 290.631 366.531 289.16 369.513 287.754 372.657 C 285.255 375.916 283.034 376.697 279.032 377.345 C 272.342 375.426 266.422 371.015 260.729 367.086 C 257.005 364.53 253.115 362.236 249.232 359.934 C 244.443 357.077 244.443 357.077 243.017 353.72 C 242.626 350.413 242.773 349.848 244.249 347.085 C 244.601 346.415 244.961 345.743 245.324 345.053 C 247.286 341.528 249.299 338.042 251.367 334.576 C 251.777 333.876 252.187 333.176 252.616 332.453 C 255.298 327.918 258.163 323.551 261.181 319.238 C 261.79 318.344 262.399 317.449 263.007 316.554 C 289.967 277.648 328.764 248.415 369.804 226.122 C 370.463 225.756 371.124 225.399 371.806 225.028 C 383.534 218.778 396.271 214.52 408.742 210.02 C 410.443 209.402 412.144 208.784 413.839 208.143 C 420.66 205.617 427.728 203.939 434.775 202.182 Z" style="visibility: hidden; stroke-width: 0px;" fill="black"/>
  <path d="M 601.268 299.988 C 607.47 301.787 628.338 315.942 629 318.571 C 630.347 323.916 625.065 328.873 622.883 333.935 C 620.562 339.318 613.279 358.976 605.548 360.22 C 596.261 361.714 583.853 350.802 576.936 346.403 C 563.813 338.057 516.205 328.305 492.546 333.564 C 455.8 341.732 423.095 354.724 397.574 380.412 C 386.532 391.526 379.349 405.902 370.073 418.528 C 368.436 420.756 367.355 425.181 364.62 424.777 C 359.642 424.042 328.015 411.096 325.202 400.019 C 323.924 394.985 328.713 386.941 331.461 382.718 C 337.06 374.113 341.174 364.18 348.7 357.197 C 406.276 303.778 474.43 263.192 601.268 299.988 Z" style="transform-box: fill-box; transform-origin: 50% 50%; visibility: hidden; stroke-width: 0px;" fill="black" transform="matrix(1, 0, 0, 1, 0, -0.00001526)"/>
  <path d="M 515.042 381.05 C 532.365 380.88 548.773 389.324 564.986 395.427 C 569.122 396.984 573.906 399.55 575.314 403.739 C 576.545 407.401 573.548 411.42 571.454 414.666 C 565.354 424.122 561.916 438.924 550.96 441.492 C 536.9 444.788 523.856 429.169 509.415 429.209 C 494.404 429.251 479.186 434.272 466.158 441.729 C 456.344 447.346 451.229 458.723 443.473 466.952 C 442.128 468.379 440.789 471.177 438.899 470.652 C 430.583 468.342 423.148 463.523 415.662 459.227 C 410.77 456.419 404.151 454.571 401.88 449.407 C 400.225 445.645 404.04 441.336 406.276 437.887 C 423.673 411.052 444.889 381.738 515.042 381.05 Z" style="visibility: hidden; stroke-width: 0px;" fill="black"/>
  <ellipse fill="black" cx="512" cy="512" rx="36.061" ry="36.061" style="stroke-width: 0px;"/>
  <path fill="black" style="stroke-width: 0px;" d="M 650.565 292.097 C 431.971 169.898 294.326 361.562 286.93 382.117 L 246.067 358.611 C 304.45 244.44 492.414 142.686 675.132 252.183"/>
  <path fill="black" style="stroke-width: 0px;" d="M 603.64 367.34 C 464.849 289.243 376.932 401.672 363.874 426.543 L 325.195 403.614 C 389.48 294.359 523.465 267.687 627.179 329.049"/>
  <path fill="black" style="stroke-width: 0px;" d="M 557.814 439.57 C 503.872 410.711 457.6 431.542 437.565 468.454 C 437.325 468.896 399.271 447.297 399.271 447.297 C 401.394 443.781 462.04 339.741 581.257 402.17"/>
  <g transform="matrix(1.094017, 0, 0, 1.141329, -70.017097, -97.355331)" style="pointer-events: none; visibility: hidden;">
    <ellipse style="fill: rgb(216, 216, 216); stroke: rgb(0, 0, 0); opacity: 0.8;" cx="532" cy="533.9" rx="357.398" ry="342.583">
      <title>Outer Guide</title>
    </ellipse>
    <ellipse style="fill: rgb(216, 216, 216); stroke: rgb(0, 0, 0); opacity: 0.18; stroke-width: 1;" cx="532" cy="533.9" rx="78.231" ry="75">
      <title>Ring A Inner</title>
    </ellipse>
    <ellipse style="fill: rgb(216, 216, 216); stroke: rgb(0, 0, 0); opacity: 0.18;" cx="532" cy="533.9" rx="118.828" ry="113.902">
      <title>Ring A Outer</title>
    </ellipse>
    <ellipse style="fill: rgb(216, 216, 216); stroke: rgb(0, 0, 0); opacity: 0.18; stroke-width: 1;" cx="532" cy="533.9" rx="156.396" ry="149.902">
      <title>Ring B Inner</title>
    </ellipse>
    <ellipse style="fill: rgb(216, 216, 216); stroke: rgb(0, 0, 0); opacity: 0.18; stroke-width: 1;" cx="532" cy="533.9" rx="193.781" ry="185.748">
      <title>Ring B Outer</title>
    </ellipse>
    <ellipse style="fill: rgb(216, 216, 216); stroke: rgb(0, 0, 0); opacity: 0.18; stroke-width: 1;" cx="532" cy="533.9" rx="237.656" ry="227.805">
      <title>Ring C Inner</title>
    </ellipse>
    <ellipse style="fill: rgb(216, 216, 216); stroke: rgb(0, 0, 0); opacity: 0.18; stroke-width: 1;" cx="532" cy="533.9" rx="280.617" ry="268.985">
      <title>Ring C Outer</title>
    </ellipse>
    <line style="fill: rgb(216, 216, 216); stroke: rgb(0, 0, 0);" x1="532" y1="85.3" x2="532" y2="982.5"/>
    <line style="fill: rgb(216, 216, 216); stroke: rgb(0, 0, 0); stroke-width: 1;" x1="64" y1="533.9" x2="1000" y2="533.9"/>
    <line style="fill: rgb(216, 216, 216); stroke: rgb(0, 0, 0);" x1="532" y1="533.9" x2="762.42" y2="184.069"/>
    <line style="fill: rgb(216, 216, 216); stroke: rgb(0, 0, 0);" x1="532" y1="533.9" x2="159.405" y2="328.008"/>
    <line style="fill: rgb(216, 216, 216); stroke: rgb(0, 0, 0);" x1="532" y1="533.9" x2="428.494" y2="108.122"/>
  </g>
</svg>