<svg xmlns="http://www.w3.org/2000/svg" viewBox="0 0 1024 1024"><path d="M495.766 121.543c1.16 0 2.33 0 3.52-.01h7.35c3.66 0 7.31-.02 10.97-.04 85.85-.21 170.052 29.37 236.552 84.216l-1 2h-2c-.15.664-.29 1.328-.44 2.012-1.38 5.418-2.29 8.106-7 11.395-5.37 5.492-7.12 15.146-7.56 22.593-5.07-3.162-9.85-6.627-14.54-10.31-47.11-36.848-102.472-59.916-161.582-68.366-1.24-.18-1.24-.18-2.49-.37-15.68-2.09-31.59-2.19-47.39-2.2h-2.85c-15.26.02-30.05.8-45.15 3.25-1.09.17-2.19.34-3.32.5-50.92 7.78-101.04 26.82-142.68 57.496-.67.493-1.34.985-2.04 1.493-8.53 6.252-16.85 12.706-24.96 19.507l-2.97 2.414c-8.11 6.657-15.56 13.929-22.97 21.336-.49.496-.99.991-1.5 1.502-5.74 5.736-11.33 11.549-16.56 17.748-.55.639-1.09 1.278-1.65 1.936-8.21 9.656-15.84 19.587-22.98 30.056a450 450 0 0 1-3.92 5.637c-30.79 44.33-47.85 97.033-53.45 150.371-.09.789-.19 1.577-.29 2.389-9.9 90.336 20.24 181.938 75.76 252.756 2.14 2.649 4.33 5.254 6.53 7.855 1.21 1.485 1.21 1.485 2.44 3 6.51 7.903 13.58 15.206 20.81 22.438.47.472.94.945 1.43 1.432 5.6 5.596 11.29 11.007 17.32 16.13.84.726.84.726 1.69 1.465 17.25 14.957 37.03 28.056 57.31 38.535.94.489.94.489 1.89.988 4.66 2.428 9.37 4.744 14.11 7.012.73.351 1.45.701 2.2 1.062 27.52 13.179 56.99 22.866 87.18 27.522 7.02 1.165 11.58 4.069 16.56 9.166l2.06 2.094c1.93 2.073 3.71 4.218 5.5 6.406 4.69 5.475 10.89 8.434 18.07 9.063 10.53-.231 17.23-6.291 24.43-13.313 1.37-1.305 2.74-2.597 4.13-3.875.84-.8.84-.8 1.69-1.617 7.14-4.935 15.17-5.262 23.56-6.008 10.98-1.087 21.79-2.376 32.62-4.5l2.8-.524c30.29-5.764 59.502-15.991 87.202-29.476.89-.43 1.77-.86 2.68-1.303 22.76-11.228 44.43-25.425 63.51-42.159 2.29-1.948 4.65-3.811 7-5.69 6-4.9 11.48-10.223 16.94-15.723.92-.916 1.84-1.833 2.8-2.777 6.12-6.141 11.66-12.574 17.07-19.348q1.32-1.56 2.64-3.101c46.46-54.072 73.081-124.405 79.361-194.899l.34-3.781c3.942-52.272-3.05-109.524-25.211-157.48-2.42-5.717-2.44-9.746-1.13-15.739.18-.91.36-1.819.54-2.757.59-2.904 1.23-5.791 1.9-8.68 1.52-6.725 2.95-13.436 4.11-20.233.451-2.33.451-2.33 1.513-5.705 1.414-5.467 1.616-11.001 1.938-16.625 29.299 35.683 53.122 118.491 57 167l.175 2.16c4.886 63.814-3.773 133.827-32.214 191.855a263 263 0 0 0-2.993 6.462c-14.956 32.904-35.269 63.287-58.969 90.523-.95 1.104-.95 1.104-1.93 2.231a583 583 0 0 1-5.07 5.769c-.6.696-1.21 1.393-1.83 2.11-5.04 5.733-10.34 11.171-15.73 16.578-.71.713-1.42 1.425-2.15 2.16-4.6 4.588-9.34 8.943-14.29 13.152-.64.544-1.27 1.088-1.93 1.649-51.62 43.741-111.2 71.088-177.072 85.351l-2.5.547c-14.61 3.11-29.65 4.138-44.5 5.453l-3.25.299c-8.6.737-17.18.943-25.81.951l-2.26.003c-86.53-.077-172.27-28.314-239.68-83.253-1.29-1.023-2.57-2.045-3.86-3.066-18.34-14.61-36.7-30.827-51.13-49.363-1.87-2.394-3.83-4.693-5.82-6.985-45.59-52.624-74.55-120.148-85.38-188.586-.15-.97-.31-1.941-.47-2.942-2.88-19.26-3.69-38.411-3.65-57.869 0-3.854-.03-7.708-.05-11.562-.25-96.998 41.67-185.324 116.51-264.889.69-.697 1.39-1.394 2.1-2.113l1.97-1.982c3.83-3.815 7.76-7.45 11.86-10.981a371 371 0 0 0 5.28-4.662c15.47-13.751 32.2-25.876 49.64-37.006.93-.59.93-.59 1.87-1.19 54.78-34.66 120.7-55.9 185.74-55.97" style="stroke-width:0"/><path d="M797.158 138.713c6.17.49 11.86 1.93 17.79 3.66.91.26 1.82.52 2.76.78 1.91.55 3.82 1.1 5.72 1.66 2.92.84 5.83 1.68 8.75 2.51 1.86.54 3.72 1.07 5.59 1.61.86.25 1.73.5 2.63.75 4.008 1.17 7.918 2.37 11.761 4.03-.572 5.47-1.559 10.57-3.117 15.83-.442 1.53-.884 3.07-1.326 4.61-.233.8-.467 1.6-.707 2.43a1925 1925 0 0 0-3.702 12.96l-.775 2.73a1981 1981 0 0 0-7.884 28.713c-.49 1.85-.99 3.698-1.49 5.545-.71 2.589-1.39 5.182-2.08 7.776-.21.764-.42 1.528-.64 2.315-1.13 4.375-1.38 7.692-.28 12.087l11 3c1.126 5.628 1.126 5.628.04 9.172-.22.747-.45 1.493-.68 2.262-.24.764-.48 1.529-.73 2.316-.24.78-.47 1.56-.72 2.364-1.75 5.725-1.75 5.725-2.91 6.886-6.79-.05-13.13-1.39-19.59-3.379-2.64-.787-2.64-.787-6.41-.621l-1 8 2.13.297c8.21 1.243 15.94 3.285 23.87 5.703.97 4.398.95 7.432-.31 11.75-.27.944-.53 1.888-.8 2.86-.89 2.39-.89 2.39-2.89 4.39-6.54.531-12.21-.808-18.5-2.5l-2.78-.722c-2.24-.584-4.48-1.18-6.72-1.778l-1 9 3.44.25c4.9.541 9.64 1.578 14.44 2.688 1.12.255 1.12.255 2.27.514 3.43.815 5.89 1.573 8.85 3.548-.41 6.176-1.47 11.329-4 17-7.12 3.561-19.09-1.32-26.47-3.16-3.25-.917-3.25-.917-5.53-.84v7c9.01 2.516 17.96 4.684 27.15 6.387 2.85.613 2.85.613 3.85 1.613-.5 5.553-1.56 10.831-2.93 16.227-.18.751-.37 1.503-.57 2.277l-1.2 4.724c-.61 2.395-1.2 4.794-1.8 7.194-.39 1.54-.78 3.079-1.18 4.617-.17.71-.34 1.419-.52 2.15-1.2 4.582-2.88 8.08-5.8 11.811-5.94 1.874-12.83-.541-18.55-2.343-2.67-.829-2.67-.829-6.45-.657-3.52 10.744-6.49 21.542-9.16 32.525-6.95 28.515-14.45 56.892-21.99 85.255l-2.28 8.654c-11.33 42.951-29.4 79.791-59.57 112.566a476 476 0 0 0-4.96 5.664 457 457 0 0 1-5.11 5.735l-3.3 3.726c-.54.587-1.08 1.173-1.63 1.777-3.12 3.549-5.01 6.156-5 11.098.96 1.925.96 1.925 2.5 3.438 2.18 2.767 2.49 3.339 2.63 7.062-1.39 4.314-3.32 6.965-6.13 10.5-5.36-.315-7.65-3.271-11.06-7-4.2-4.744-4.2-4.744-9.94-7l-2 4c.48.459.97.917 1.47 1.39 2.19 2.086 4.36 4.191 6.53 6.298.76.721 1.53 1.442 2.31 2.185.73.706 1.45 1.412 2.19 2.139 1.01.966 1.01.966 2.03 1.952 1.85 2.557 1.88 3.946 1.47 7.036-1.53 2.457-1.53 2.457-3.5 4.813l-1.97 2.394c-.5.592-1.01 1.184-1.53 1.793-3.34.048-5.43-.52-7.99-2.676-2.2-2.243-4.3-4.541-6.38-6.886a386 386 0 0 1-2.23-2.444 586 586 0 0 1-5.4-5.994c-3.37 1.52-4.61 2.521-6 6 2.04 2.066 4.08 4.128 6.13 6.188l1.72 1.752c2.75 2.76 5.49 5.384 8.54 7.81 2.61 2.25 2.61 2.25 3.3 5.063-.92 4.242-2.54 8.121-5.69 11.187-3.3.652-4.65.218-7.51-1.582-.86-.736-1.72-1.472-2.61-2.23l-2.89-2.449a111 111 0 0 1-6.01-5.821c-.49-.506-.98-1.012-1.48-1.534-1.38-1.449-2.732-2.92-4.092-4.391-2.17-2.236-2.17-2.236-4.58-1.942-2.81 1.457-4.17 3.298-5.83 5.949.54 4.637 3.77 7.015 7 10.063 13.642 13.222 13.642 13.222 17.002 19.937-35.292 44.605-35.292 44.605-56.002 62a1043 1043 0 0 0-3.62 3.104l-1.92 1.642c-.48.414-.96.828-1.46 1.254-.61-.611-1.22-1.221-1.84-1.851-5.77-5.784-11.53-11.565-17.3-17.344-2.96-2.97-5.93-5.941-8.89-8.914-2.86-2.875-5.73-5.747-8.6-8.617-1.09-1.091-2.17-2.182-3.26-3.274-5.35-5.378-10.71-10.697-16.51-15.602-2.44-2.138-4.57-4.527-6.72-6.96-3.13-3.521-6.33-6.917-9.73-10.184-.65-.625-1.29-1.25-1.96-1.894a315 315 0 0 0-3.85-3.639c-1.76-1.689-1.76-1.689-4.34-4.721.26-3.305 1.58-4.928 3.92-7.172l1.79-1.751c.64-.603 1.27-1.206 1.92-1.827 1.29-1.257 2.58-2.516 3.86-3.777.62-.602 1.23-1.204 1.86-1.824 1.92-1.913 3.71-3.9 5.47-5.961 6.1-7.158 12.83-13.365 20.17-19.238 3.38-2.747 6.66-5.592 9.95-8.45 6.14-5.314 12.49-10.233 19.06-15 2.93 1.333 5.1 2.811 7.43 5.02.65.604 1.29 1.209 1.95 1.832l2.06 1.961 2.12 2.006c6.6 6.272 13.05 12.693 19.44 19.181 3.33-1.552 5.49-3.306 8-6-1.48-3.486-3.46-5.642-6.19-8.25-2.92-2.849-5.72-5.713-8.37-8.812-3.6-4.199-7.48-8.076-11.44-11.938.4-.459.8-.917 1.21-1.39.79-.921.79-.921 1.6-1.86.83-.953.83-.953 1.67-1.925 1.62-1.863 1.62-1.863 3.08-4.262 1.44-1.563 1.44-1.563 3.66-1.998 4.01.627 6.03 3.024 8.74 5.834.55.55 1.09 1.1 1.66 1.667 1.15 1.163 2.3 2.331 3.44 3.506 1.75 1.802 3.52 3.585 5.3 5.366 1.12 1.132 2.23 2.264 3.35 3.398.79.805.79.805 1.61 1.626 3.68 3.805 3.68 3.805 3.68 6.038 2.57-1.21 2.57-1.21 5-3 .43-4.015.43-4.015-2.03-6.394l-2.82-2.633c-1-.967-2.01-1.933-3.02-2.9q-2.4-2.266-4.8-4.516a377 377 0 0 1-4.61-4.397c-.93-.87-1.86-1.74-2.81-2.636-1.91-2.524-1.91-2.524-1.81-5.234 1.1-2.784 2.24-3.851 4.65-5.602.68-.512 1.35-1.024 2.05-1.551 2.75-1.419 4.13-1.547 7.2-1.137 2.5 1.928 2.5 1.928 5.08 4.594.46.466.92.932 1.39 1.413 1.46 1.486 2.9 2.989 4.34 4.493q1.485 1.52 2.97 3.035c2.422 2.476 4.822 4.966 7.222 7.465l4-2c.43-3.97.43-3.97-1.85-6.226-.85-.792-1.69-1.583-2.56-2.399-1.36-1.307-1.36-1.307-2.75-2.64q-2.911-2.737-5.822-5.469c-.9-.871-1.81-1.743-2.74-2.641-.85-.791-1.69-1.583-2.56-2.398-1.72-2.227-1.72-2.227-1.59-4.421 1.73-3.592 5.35-5.23 8.87-6.806 2.752-.062 2.752-.062 5.002 1l1.94 2.125 2.06 1.875c9.27-.519 16.68-8.202 22.66-14.75 1.34-1.25 1.34-1.25 3.34-1.25l.81-1.816c1.21-2.215 2.34-3.44 4.19-5.121 13.98-13.662 23.79-31.519 32-49.063.52-1.091 1.04-2.183 1.58-3.308 10.09-22.18 14.91-46.83 20.86-70.364 1.85-7.303 3.71-14.602 5.57-21.901.47-1.813.93-3.626 1.39-5.44 4.05-15.894 8.19-31.764 12.41-47.612.28-1.028.55-2.057.83-3.117 1.45-5.421 2.9-10.84 4.36-16.258l-3.51-.734c-1.54-.338-3.08-.676-4.61-1.016-.77-.157-1.53-.314-2.31-.476-4.87-1.092-8.84-2.268-12.57-5.774-1.61-5.988-.74-10.596.98-16.445a776.557 776.557 0 0 1 2.05-7.209c.72-2.467 1.41-4.938 2.1-7.412l1.35-4.754c.21-.731.42-1.463.63-2.216 1.24-4.245 2.78-8.051 4.89-11.964 6.24.575 11.76 2.016 17.69 4 7.05 2.379 7.05 2.379 14.31 4l2-8c-.69-.158-1.38-.317-2.1-.48a237 237 0 0 1-17.96-5.02c-1.87-.603-1.87-.603-3.79-1.218-4.51-1.834-4.51-1.834-6.15-4.282.21-6.236 1.44-12.442 6-17 6.55.347 12.72 2.614 18.94 4.563a2609.077 2609.077 0 0 1 11.06 3.437l1-8c-1.02-.314-2.03-.629-3.08-.953-24.47-7.598-24.47-7.598-25.92-9.047.41-5.822 1.42-10.74 4-16 4.11-1.51 7.26-.684 11.39.434 1.21.319 2.41.638 3.65.967l3.77 1.037c1.27.338 2.53.677 3.84 1.025 3.12.836 6.23 1.682 9.35 2.537v-9l-2.13-.297c-21.41-3.241-21.41-3.241-24.87-6.703-.45-7.015.38-13.43 3-20 1.61-1.82 1.61-1.82 3-3l1.79.621c.79.27 1.58.539 2.4.817.78.267 1.55.534 2.35.808 2.47.759 4.93 1.265 7.46 1.754.24-.98.48-1.96.73-2.97a852 852 0 0 1 7.46-28.1c.39-1.378.78-2.757 1.16-4.135 1.01-3.581 2.02-7.161 3.04-10.751 1.02-3.61 2.04-7.23 3.06-10.85 3.79-13.46 3.79-13.46 5.53-19.56.71-2.54 1.43-5.08 2.13-7.62.37-1.29.73-2.58 1.09-3.87.32-1.15.64-2.31.97-3.5.83-2.64.83-2.64 1.83-3.64M482.156 727.709c2.85 1.292 4.9 2.649 7.1 4.864.83.836.83.836 1.68 1.689.57.581 1.14 1.162 1.72 1.76.57.569 1.14 1.138 1.73 1.724 2.37 2.404 4.62 4.76 6.68 7.444 1.76 2.119 3.37 3.666 5.47 5.423 5.87 5.096 11.3 10.645 16.78 16.155 1.15 1.156 2.31 2.312 3.46 3.467 3.02 3.018 6.03 6.039 9.04 9.06 3.08 3.093 6.17 6.182 9.25 9.272q9.045 9.067 18.09 18.142c-.4.466-.8.931-1.21 1.411-.54.618-1.07 1.237-1.62 1.875-.78.914-.78.914-1.59 1.847a156 156 0 0 0-3.01 3.658c-1.15 1.436-2.36 2.827-3.57 4.209h-2c-.38.871-.38.871-.77 1.759-1.35 2.474-2.86 4.119-4.86 6.105-.72.722-1.45 1.445-2.19 2.189-.76.746-1.52 1.492-2.3 2.26-.74.734-1.47 1.468-2.23 2.224a244 244 0 0 1-12.72 11.746c-3.25 2.898-6.26 6.035-9.3 9.155-15.8 15.894-15.8 15.894-21.88 16.375-5.34-1.158-8.02-3.331-11.18-7.875-.71-2.438-.39-3.546.43-5.938 5.67-7.878 13.37-15.064 21-21 1.69-1.644 3.36-3.313 5-5 .95-.858.95-.858 1.91-1.734l1.97-1.828c.62-.558 1.23-1.116 1.87-1.692 1.52-1.693 1.52-1.693.95-3.96-.23-.59-.46-1.179-.7-1.786-1.79-.816-1.79-.816-4-1-2.01 1.361-2.01 1.361-3.81 3.438-.62.659-1.25 1.317-1.89 1.996-1.27 1.42-2.54 2.844-3.78 4.288-4.85 5.627-9.97 10.946-15.2 16.216-1.26 1.292-1.26 1.292-2.55 2.611-.82.818-1.63 1.636-2.46 2.479-.74.74-1.47 1.479-2.22 2.242-2.13 1.764-3.34 2.539-6.09 2.73-2.25-1.937-2.25-1.937-4-4 1.38-3.097 2.94-5.161 5.37-7.511 1.02-1.002 1.02-1.002 2.07-2.023.74-.711 1.47-1.421 2.23-2.153 1.55-1.518 3.1-3.036 4.64-4.555q3.675-3.584 7.35-7.149c2.37-2.296 4.72-4.607 7.07-6.921.75-.711 1.49-1.421 2.25-2.153.68-.668 1.35-1.335 2.05-2.023l1.82-1.767c1.41-1.711 1.41-1.711.84-3.964-.23-.588-.45-1.175-.69-1.781-1.8-.795-1.8-.795-4-1-1.96 1.236-1.96 1.236-3.75 3.192-1.09 1.081-1.09 1.081-2.19 2.184-.77.792-1.53 1.585-2.32 2.402-.8.8-1.59 1.601-2.41 2.425-2.54 2.567-5.06 5.151-7.58 7.735-1.71 1.74-3.43 3.479-5.15 5.217q-6.315 6.405-12.6 12.845c-2.62-1.048-3.79-1.649-5.25-4.125-.24-.618-.49-1.237-.75-1.875.44-.425.88-.85 1.34-1.288 4.58-4.424 9.13-8.872 13.67-13.336 1.7-1.663 3.4-3.319 5.12-4.969 2.45-2.372 4.88-4.766 7.31-7.164.78-.735 1.55-1.47 2.34-2.227 1.94-1.937 3.7-3.738 5.22-6.016.19-3.414.19-3.414-1-6-2.97-.31-2.97-.31-4.72 1.367-.64.64-1.27 1.279-1.92 1.938l-2.18 2.184c-.78.788-1.55 1.575-2.34 2.386-1.2 1.199-1.2 1.199-2.41 2.422-2.55 2.561-5.08 5.132-7.61 7.703-1.72 1.735-3.44 3.47-5.17 5.203a6366 6366 0 0 0-12.65 12.797c-3.78-1.514-4-2.014-6-6l37-37-2-4c-4.12-.431-4.12-.431-6.89 2.46-1.13 1.129-2.24 2.27-3.34 3.419-.6.605-1.19 1.21-1.81 1.833-1.91 1.941-3.81 3.895-5.71 5.851-2.49 2.547-4.98 5.089-7.48 7.629-.6.607-1.19 1.214-1.81 1.84-10.69 10.833-10.69 10.833-14.96 12.968l-4-4c1.4-3.137 3.01-5.254 5.44-7.667.7-.7 1.41-1.4 2.13-2.122.75-.745 1.51-1.49 2.28-2.258.78-.771 1.55-1.542 2.35-2.337 2.47-2.46 4.95-4.913 7.43-7.366 1.68-1.667 3.35-3.335 5.03-5.004 4.11-4.087 8.22-8.168 12.34-12.246l-2-4c-4.04-.434-4.04-.434-6.51 2.161-.9.957-1.81 1.915-2.74 2.902-3.07 3.236-6.13 6.312-9.51 9.219-4.81 4.153-9.27 8.639-13.74 13.156-1.23 1.24-1.23 1.24-2.49 2.506-2 2.016-4.01 4.035-6.01 6.056-3.67-1.69-5.39-3.423-7.75-6.75-.61-.84-1.22-1.681-1.86-2.547-1.75-3.414-2.15-4.91-1.39-8.703 4.88-6.713 11.33-12.428 17.22-18.238.97-.971 1.95-1.942 2.93-2.913 4.1-4.083 8.22-8.16 12.33-12.232q3.81-3.763 7.59-7.536 2.115-2.094 4.23-4.179a192 192 0 0 0 14.91-16.674c1.79-2.228 1.79-2.228 3.79-4.228M134.156 411.709l1 2h-2c.19.557.37 1.114.56 1.688.52 2.711.11 4.656-.56 7.312h-2c.21.557.41 1.114.63 1.688.48 2.972-.36 4.632-1.63 7.312h-2c2.28-13.195 2.28-13.195 4-19z" style="stroke-width:0"/><path d="m727.158 426.709 2 1c-.67 3.334-1.33 6.667-2 10-.15.873-.29 1.746-.44 2.645-.56 2.355-.56 2.355-2.56 5.355-1.03-4.586-.85-7.788.38-12.312l.83-3.176c.79-2.512.79-2.512 1.79-3.512M901.159 531.709l2 1c.081 1.625.139 3.25.187 4.875l.106 2.743-.293 2.382-3 2q-.04-2.969-.063-5.937l-.035-3.34c.098-2.723.098-2.723 1.098-3.723M122.156 526.709c2.03 3.35 2.22 5.87 2.13 9.75l-.06 2.985c-.02.747-.05 1.495-.07 2.265-3.59-4.218-3.34-6.599-3-12zM709.158 496.709l2 1c-.25 1.482-.53 2.961-.81 4.438-.15.824-.3 1.647-.46 2.496-.24.682-.48 1.364-.73 2.066l-3 1c.31-1.646.62-3.292.94-4.937.17-.917.35-1.833.53-2.777.53-2.286.53-2.286 1.53-3.286M306.156 179.703l2 1h-3zm-3 2 2 1h-3zm-1 2v3l-5 2v-3c3-2 3-2 5-2m-8 4 2 1zM741.158 377.709c.95 2.17 1.14 3.564.4 5.825-.76 1.744-1.58 3.462-2.4 5.175l-2-1c.28-1.481.58-2.96.88-4.437.16-.824.32-1.648.49-2.496.21-.682.42-1.364.63-2.067zM136.156 400.709l2 1-3 9h-2c.31-1.48.62-2.959.94-4.437.17-.824.35-1.648.53-2.496.53-2.067.53-2.067 1.53-3.067M672.158 155.713c3.49 1.11 6.78 2.27 10 4v2c-3.79-1-6.71-1.81-10-4zM849.159 613.709h2v2h-2v7h-3zM343.156 821.709c3.35.558 6.04 1.352 9 3v2l-9-3zM482.156 814.709l2 1c-3.62 4.875-3.62 4.875-7 6 1.3-2.884 2.66-4.872 5-7M315.156 804.709c3.88.574 6.08 2.487 9 5-3.34-.557-6.03-1.351-9-3zM140.156 633.709h3c.63 2.313.63 2.313 1 5l-2 3zM772.158 226.709l2 1c-.75 2.938-.75 2.938-2 6-2.12.875-2.12.875-4 1l2-1c.73-2.314 1.4-4.648 2-7" style="stroke-width:0"/><circle cx="512" cy="512" r="36.061" style="stroke-width:0"/><path d="M650.565 292.097c-218.594-122.199-356.239 69.465-363.635 90.02l-40.863-23.506C304.45 244.44 492.414 142.686 675.132 252.183" style="stroke-width:0"/><path d="M603.64 367.34c-138.791-78.097-226.708 34.332-239.766 59.203l-38.679-22.929c64.285-109.255 198.27-135.927 301.984-74.565" style="stroke-width:0"/><path d="M557.814 439.57c-53.942-28.859-100.214-8.028-120.249 28.884-.24.442-38.294-21.157-38.294-21.157 2.123-3.516 62.769-107.556 181.986-45.127" style="stroke-width:0"/></svg>