<?xml version="1.0" encoding="utf-8"?>
<svg xmlns="http://www.w3.org/2000/svg" viewBox="0 0 1024 1024">
  <path d="M 502.766 124.543 C 503.926 124.543 505.096 124.543 506.286 124.533 C 508.736 124.533 511.186 124.533 513.636 124.533 C 517.296 124.533 520.946 124.513 524.606 124.493 C 610.456 124.283 694.658 153.863 761.158 208.709 C 760.828 209.369 760.498 210.029 760.158 210.709 C 759.498 210.709 758.838 210.709 758.158 210.709 C 758.008 211.373 757.868 212.037 757.718 212.721 C 756.338 218.139 755.428 220.827 750.718 224.116 C 745.348 229.608 743.598 239.262 743.158 246.709 C 738.088 243.547 733.308 240.082 728.618 236.399 C 681.508 199.551 626.146 176.483 567.036 168.033 C 565.796 167.853 565.796 167.853 564.546 167.663 C 548.866 165.573 532.956 165.473 517.156 165.463 C 516.216 165.463 515.276 165.463 514.306 165.463 C 499.046 165.483 484.256 166.263 469.156 168.713 C 468.066 168.883 466.966 169.053 465.836 169.213 C 414.916 176.993 364.796 196.033 323.156 226.709 C 322.486 227.202 321.816 227.694 321.116 228.202 C 312.586 234.454 304.266 240.908 296.156 247.709 C 295.176 248.506 294.196 249.303 293.186 250.123 C 285.076 256.78 277.626 264.052 270.216 271.459 C 269.726 271.955 269.226 272.45 268.716 272.961 C 262.976 278.697 257.386 284.51 252.156 290.709 C 251.606 291.348 251.066 291.987 250.506 292.645 C 242.296 302.301 234.666 312.232 227.526 322.701 C 226.236 324.591 224.926 326.466 223.606 328.338 C 192.816 372.668 175.756 425.371 170.156 478.709 C 170.066 479.498 169.966 480.286 169.866 481.098 C 159.966 571.434 190.106 663.036 245.626 733.854 C 247.766 736.503 249.956 739.108 252.156 741.709 C 253.366 743.194 253.366 743.194 254.596 744.709 C 261.106 752.612 268.176 759.915 275.406 767.147 C 275.876 767.619 276.346 768.092 276.836 768.579 C 282.436 774.175 288.126 779.586 294.156 784.709 C 294.996 785.435 294.996 785.435 295.846 786.174 C 313.096 801.131 332.876 814.23 353.156 824.709 C 354.096 825.198 354.096 825.198 355.046 825.697 C 359.706 828.125 364.416 830.441 369.156 832.709 C 369.886 833.06 370.606 833.41 371.356 833.771 C 398.876 846.95 428.346 856.637 458.536 861.293 C 465.556 862.458 470.116 865.362 475.096 870.459 C 476.116 871.496 476.116 871.496 477.156 872.553 C 479.086 874.626 480.866 876.771 482.656 878.959 C 487.346 884.434 493.546 887.393 500.726 888.022 C 511.256 887.791 517.956 881.731 525.156 874.709 C 526.526 873.404 527.896 872.112 529.286 870.834 C 530.126 870.034 530.126 870.034 530.976 869.217 C 538.116 864.282 546.146 863.955 554.536 863.209 C 565.516 862.122 576.326 860.833 587.156 858.709 C 588.076 858.536 589.006 858.363 589.956 858.185 C 620.246 852.421 649.458 842.194 677.158 828.709 C 678.048 828.279 678.928 827.849 679.838 827.406 C 702.598 816.178 724.268 801.981 743.348 785.247 C 745.638 783.299 747.998 781.436 750.348 779.557 C 756.348 774.657 761.828 769.334 767.288 763.834 C 768.208 762.918 769.128 762.001 770.088 761.057 C 776.208 754.916 781.748 748.483 787.158 741.709 C 788.038 740.67 788.918 739.635 789.798 738.608 C 836.258 684.536 862.879 614.203 869.159 543.709 C 869.271 542.462 869.383 541.214 869.499 539.928 C 873.441 487.656 866.449 430.404 844.288 382.448 C 841.868 376.731 841.848 372.702 843.158 366.709 C 843.338 365.799 843.518 364.89 843.698 363.952 C 844.288 361.048 844.928 358.161 845.598 355.272 C 847.118 348.547 848.548 341.836 849.708 335.039 C 850.159 332.709 850.159 332.709 851.221 329.334 C 852.635 323.867 852.837 318.333 853.159 312.709 C 892.251 346.306 906.281 431.2 910.159 479.709 C 910.245 480.778 910.245 480.778 910.334 481.869 C 915.22 545.683 906.561 615.696 878.12 673.724 C 877.085 675.862 876.104 678.02 875.127 680.186 C 860.171 713.09 839.858 743.473 816.158 770.709 C 815.208 771.813 815.208 771.813 814.228 772.94 C 812.558 774.874 810.858 776.792 809.158 778.709 C 808.558 779.405 807.948 780.102 807.328 780.819 C 802.288 786.552 796.988 791.99 791.598 797.397 C 790.888 798.11 790.178 798.822 789.448 799.557 C 784.848 804.145 780.108 808.5 775.158 812.709 C 774.518 813.253 773.888 813.797 773.228 814.358 C 721.608 858.099 662.028 885.446 596.156 899.709 C 595.326 899.89 594.506 900.07 593.656 900.256 C 579.046 903.366 564.006 904.394 549.156 905.709 C 547.546 905.857 547.546 905.857 545.906 906.008 C 537.306 906.745 528.726 906.951 520.096 906.959 C 519.346 906.96 518.606 906.961 517.836 906.962 C 431.306 906.885 345.566 878.648 278.156 823.709 C 276.866 822.686 275.586 821.664 274.296 820.643 C 255.956 806.033 237.596 789.816 223.166 771.28 C 221.296 768.886 219.336 766.587 217.346 764.295 C 171.756 711.671 142.796 644.147 131.966 575.709 C 131.816 574.739 131.656 573.768 131.496 572.767 C 128.616 553.507 127.806 534.356 127.846 514.898 C 127.846 511.044 127.816 507.19 127.796 503.336 C 127.546 406.338 169.466 318.012 244.306 238.447 C 244.996 237.75 245.696 237.053 246.406 236.334 C 247.056 235.68 247.706 235.026 248.376 234.352 C 252.206 230.537 256.136 226.902 260.236 223.371 C 262.016 221.835 263.766 220.278 265.516 218.709 C 280.986 204.958 297.716 192.833 315.156 181.703 C 316.086 181.113 316.086 181.113 317.026 180.513 C 371.806 145.853 437.726 124.613 502.766 124.543 Z" fill="black" style="stroke-width: 1px;"/>
  <path d="M 804.158 141.713 C 810.328 142.203 816.018 143.643 821.948 145.373 C 822.858 145.633 823.768 145.893 824.708 146.153 C 826.618 146.703 828.528 147.253 830.428 147.813 C 833.348 148.653 836.258 149.493 839.178 150.323 C 841.038 150.863 842.898 151.393 844.768 151.933 C 845.628 152.183 846.498 152.433 847.398 152.683 C 851.406 153.853 855.316 155.053 859.159 156.713 C 858.587 162.183 857.6 167.283 856.042 172.543 C 855.6 174.073 855.158 175.613 854.716 177.153 C 854.483 177.953 854.249 178.753 854.009 179.583 C 852.757 183.893 851.532 188.213 850.307 192.543 C 850.051 193.443 849.796 194.343 849.532 195.273 C 846.828 204.825 844.208 214.395 841.648 223.986 C 841.158 225.836 840.658 227.684 840.158 229.531 C 839.448 232.12 838.768 234.713 838.078 237.307 C 837.868 238.071 837.658 238.835 837.438 239.622 C 836.308 243.997 836.058 247.314 837.158 251.709 L 848.158 254.709 C 849.284 260.337 849.284 260.337 848.198 263.881 C 847.978 264.628 847.748 265.374 847.518 266.143 C 847.278 266.907 847.038 267.672 846.788 268.459 C 846.548 269.239 846.318 270.019 846.068 270.823 C 844.318 276.548 844.318 276.548 843.158 277.709 C 836.368 277.659 830.028 276.319 823.568 274.33 C 820.928 273.543 820.928 273.543 817.158 273.709 C 816.828 276.349 816.498 278.989 816.158 281.709 C 816.858 281.807 817.568 281.905 818.288 282.006 C 826.498 283.249 834.228 285.291 842.158 287.709 C 843.128 292.107 843.108 295.141 841.848 299.459 C 841.578 300.403 841.318 301.347 841.048 302.319 C 840.158 304.709 840.158 304.709 838.158 306.709 C 831.618 307.24 825.948 305.901 819.658 304.209 C 818.738 303.971 817.818 303.732 816.878 303.487 C 814.638 302.903 812.398 302.307 810.158 301.709 C 809.828 304.679 809.498 307.649 809.158 310.709 C 810.288 310.792 811.428 310.874 812.598 310.959 C 817.498 311.5 822.238 312.537 827.038 313.647 C 828.158 313.902 828.158 313.902 829.308 314.161 C 832.738 314.976 835.198 315.734 838.158 317.709 C 837.748 323.885 836.688 329.038 834.158 334.709 C 827.038 338.27 815.068 333.389 807.688 331.549 C 804.438 330.632 804.438 330.632 802.158 330.709 L 802.158 337.709 C 811.168 340.225 820.118 342.393 829.308 344.096 C 832.158 344.709 832.158 344.709 833.158 345.709 C 832.658 351.262 831.598 356.54 830.228 361.936 C 830.048 362.687 829.858 363.439 829.658 364.213 C 829.258 365.788 828.858 367.363 828.458 368.937 C 827.848 371.332 827.258 373.731 826.658 376.131 C 826.268 377.671 825.878 379.21 825.478 380.748 C 825.308 381.458 825.138 382.167 824.958 382.898 C 823.758 387.48 822.078 390.978 819.158 394.709 C 813.218 396.583 806.328 394.168 800.608 392.366 C 797.938 391.537 797.938 391.537 794.158 391.709 C 790.638 402.453 787.668 413.251 784.998 424.234 C 778.048 452.749 770.548 481.126 763.008 509.489 C 762.248 512.373 761.488 515.258 760.728 518.143 C 749.398 561.094 731.328 597.934 701.158 630.709 C 699.488 632.584 697.838 634.472 696.198 636.373 C 694.508 638.304 692.808 640.208 691.088 642.108 C 689.988 643.35 688.888 644.592 687.788 645.834 C 687.248 646.421 686.708 647.007 686.158 647.611 C 683.038 651.16 681.148 653.767 681.158 658.709 C 682.118 660.634 682.118 660.634 683.658 662.147 C 685.838 664.914 686.148 665.486 686.288 669.209 C 684.898 673.523 682.968 676.174 680.158 679.709 C 674.798 679.394 672.508 676.438 669.098 672.709 C 664.898 667.965 664.898 667.965 659.158 665.709 C 658.498 667.029 657.838 668.349 657.158 669.709 C 657.638 670.168 658.128 670.626 658.628 671.099 C 660.818 673.185 662.988 675.29 665.158 677.397 C 665.918 678.118 666.688 678.839 667.468 679.582 C 668.198 680.288 668.918 680.994 669.658 681.721 C 670.668 682.687 670.668 682.687 671.688 683.673 C 673.538 686.23 673.568 687.619 673.158 690.709 C 671.628 693.166 671.628 693.166 669.658 695.522 C 669.008 696.312 668.358 697.102 667.688 697.916 C 667.188 698.508 666.678 699.1 666.158 699.709 C 662.818 699.757 660.728 699.189 658.168 697.033 C 655.968 694.79 653.868 692.492 651.788 690.147 C 651.048 689.341 650.308 688.534 649.558 687.703 C 647.738 685.716 645.948 683.718 644.158 681.709 C 640.788 683.229 639.548 684.23 638.158 687.709 C 640.198 689.775 642.238 691.837 644.288 693.897 C 645.138 694.764 645.138 694.764 646.008 695.649 C 648.758 698.409 651.498 701.033 654.548 703.459 C 657.158 705.709 657.158 705.709 657.848 708.522 C 656.928 712.764 655.308 716.643 652.158 719.709 C 648.858 720.361 647.508 719.927 644.648 718.127 C 643.788 717.391 642.928 716.655 642.038 715.897 C 640.608 714.684 640.608 714.684 639.148 713.448 C 637.058 711.581 635.078 709.642 633.138 707.627 C 632.648 707.121 632.158 706.615 631.658 706.093 C 630.278 704.644 628.926 703.173 627.566 701.702 C 625.396 699.466 625.396 699.466 622.986 699.76 C 620.176 701.217 618.816 703.058 617.156 705.709 C 617.696 710.346 620.926 712.724 624.156 715.772 C 637.798 728.994 637.798 728.994 641.158 735.709 C 605.866 780.314 605.866 780.314 585.156 797.709 C 583.946 798.743 582.736 799.778 581.536 800.813 C 580.586 801.626 580.586 801.626 579.616 802.455 C 579.136 802.869 578.656 803.283 578.156 803.709 C 577.546 803.098 576.936 802.488 576.316 801.858 C 570.546 796.074 564.786 790.293 559.016 784.514 C 556.056 781.544 553.086 778.573 550.126 775.6 C 547.266 772.725 544.396 769.853 541.526 766.983 C 540.436 765.892 539.356 764.801 538.266 763.709 C 532.916 758.331 527.556 753.012 521.756 748.107 C 519.316 745.969 517.186 743.58 515.036 741.147 C 511.906 737.626 508.706 734.23 505.306 730.963 C 504.656 730.338 504.016 729.713 503.346 729.069 C 502.076 727.845 500.786 726.632 499.496 725.43 C 497.736 723.741 497.736 723.741 495.156 720.709 C 495.416 717.404 496.736 715.781 499.076 713.537 C 499.666 712.96 500.256 712.382 500.866 711.786 C 501.506 711.183 502.136 710.58 502.786 709.959 C 504.076 708.702 505.366 707.443 506.646 706.182 C 507.266 705.58 507.876 704.978 508.506 704.358 C 510.426 702.445 512.216 700.458 513.976 698.397 C 520.076 691.239 526.806 685.032 534.146 679.159 C 537.526 676.412 540.806 673.567 544.096 670.709 C 550.236 665.395 556.586 660.476 563.156 655.709 C 566.086 657.042 568.256 658.52 570.586 660.729 C 571.236 661.333 571.876 661.938 572.536 662.561 C 573.216 663.208 573.896 663.855 574.596 664.522 C 575.296 665.184 575.996 665.846 576.716 666.528 C 583.316 672.8 589.766 679.221 596.156 685.709 C 599.486 684.157 601.646 682.403 604.156 679.709 C 602.676 676.223 600.696 674.067 597.966 671.459 C 595.046 668.61 592.246 665.746 589.596 662.647 C 585.996 658.448 582.116 654.571 578.156 650.709 C 578.556 650.25 578.956 649.792 579.366 649.319 C 580.156 648.398 580.156 648.398 580.966 647.459 C 581.796 646.506 581.796 646.506 582.636 645.534 C 584.256 643.671 584.256 643.671 585.716 641.272 C 587.156 639.709 587.156 639.709 589.376 639.274 C 593.386 639.901 595.406 642.298 598.116 645.108 C 598.666 645.658 599.206 646.208 599.776 646.775 C 600.926 647.938 602.076 649.106 603.216 650.281 C 604.966 652.083 606.736 653.866 608.516 655.647 C 609.636 656.779 610.746 657.911 611.866 659.045 C 612.656 659.85 612.656 659.85 613.476 660.671 C 617.156 664.476 617.156 664.476 617.156 666.709 C 619.726 665.499 619.726 665.499 622.156 663.709 C 622.586 659.694 622.586 659.694 620.126 657.315 C 619.196 656.446 618.266 655.577 617.306 654.682 C 616.306 653.715 615.296 652.749 614.286 651.782 C 612.686 650.271 611.086 648.766 609.486 647.266 C 607.936 645.813 606.396 644.343 604.876 642.869 C 603.946 641.999 603.016 641.129 602.066 640.233 C 600.156 637.709 600.156 637.709 600.256 634.999 C 601.356 632.215 602.496 631.148 604.906 629.397 C 605.586 628.885 606.256 628.373 606.956 627.846 C 609.706 626.427 611.086 626.299 614.156 626.709 C 616.656 628.637 616.656 628.637 619.236 631.303 C 619.696 631.769 620.156 632.235 620.626 632.716 C 622.086 634.202 623.526 635.705 624.966 637.209 C 625.956 638.222 626.946 639.234 627.936 640.244 C 630.358 642.72 632.758 645.21 635.158 647.709 C 636.478 647.049 637.798 646.389 639.158 645.709 C 639.588 641.739 639.588 641.739 637.308 639.483 C 636.458 638.691 635.618 637.9 634.748 637.084 C 633.388 635.777 633.388 635.777 631.998 634.444 C 630.058 632.619 628.116 630.796 626.176 628.975 C 625.276 628.104 624.366 627.232 623.436 626.334 C 622.586 625.543 621.746 624.751 620.876 623.936 C 619.156 621.709 619.156 621.709 619.286 619.515 C 621.016 615.923 624.636 614.285 628.156 612.709 C 630.908 612.647 630.908 612.647 633.158 613.709 C 633.798 614.411 634.438 615.112 635.098 615.834 C 635.778 616.453 636.458 617.072 637.158 617.709 C 646.428 617.19 653.838 609.507 659.818 602.959 C 661.158 601.709 661.158 601.709 663.158 601.709 C 663.558 600.81 663.558 600.81 663.968 599.893 C 665.178 597.678 666.308 596.453 668.158 594.772 C 682.138 581.11 691.948 563.253 700.158 545.709 C 700.678 544.618 701.198 543.526 701.738 542.401 C 711.828 520.221 716.648 495.571 722.598 472.037 C 724.448 464.734 726.308 457.435 728.168 450.136 C 728.638 448.323 729.098 446.51 729.558 444.696 C 733.608 428.802 737.748 412.932 741.968 397.084 C 742.248 396.056 742.518 395.027 742.798 393.967 C 744.248 388.546 745.698 383.127 747.158 377.709 C 745.998 377.467 744.848 377.225 743.648 376.975 C 742.108 376.637 740.568 376.299 739.038 375.959 C 738.268 375.802 737.508 375.645 736.728 375.483 C 731.858 374.391 727.888 373.215 724.158 369.709 C 722.548 363.721 723.418 359.113 725.138 353.264 C 725.358 352.491 725.578 351.717 725.798 350.92 C 726.258 349.296 726.718 347.674 727.188 346.055 C 727.908 343.588 728.598 341.117 729.288 338.643 C 729.738 337.058 730.188 335.473 730.638 333.889 C 730.848 333.158 731.058 332.426 731.268 331.673 C 732.508 327.428 734.048 323.622 736.158 319.709 C 742.398 320.284 747.918 321.725 753.848 323.709 C 760.898 326.088 760.898 326.088 768.158 327.709 L 770.158 319.709 C 769.468 319.551 768.778 319.392 768.058 319.229 C 761.998 317.782 756.028 316.128 750.098 314.209 C 748.228 313.606 748.228 313.606 746.308 312.991 C 741.798 311.157 741.798 311.157 740.158 308.709 C 740.368 302.473 741.598 296.267 746.158 291.709 C 752.708 292.056 758.878 294.323 765.098 296.272 C 766.158 296.601 767.228 296.931 768.328 297.27 C 770.938 298.078 773.548 298.892 776.158 299.709 L 777.158 291.709 C 776.138 291.395 775.128 291.08 774.078 290.756 C 749.608 283.158 749.608 283.158 748.158 281.709 C 748.568 275.887 749.578 270.969 752.158 265.709 C 756.268 264.199 759.418 265.025 763.548 266.143 C 764.758 266.462 765.958 266.781 767.198 267.11 C 768.438 267.452 769.688 267.794 770.968 268.147 C 772.238 268.485 773.498 268.824 774.808 269.172 C 777.928 270.008 781.038 270.854 784.158 271.709 C 784.158 268.739 784.158 265.769 784.158 262.709 C 783.458 262.611 782.748 262.513 782.028 262.412 C 760.618 259.171 760.618 259.171 757.158 255.709 C 756.708 248.694 757.538 242.279 760.158 235.709 C 761.768 233.889 761.768 233.889 763.158 232.709 C 763.748 232.914 764.338 233.119 764.948 233.33 C 765.738 233.6 766.528 233.869 767.348 234.147 C 768.128 234.414 768.898 234.681 769.698 234.955 C 772.168 235.714 774.628 236.22 777.158 236.709 C 777.398 235.729 777.638 234.749 777.888 233.739 C 780.208 224.324 782.708 214.97 785.348 205.639 C 785.738 204.261 786.128 202.882 786.508 201.504 C 787.518 197.923 788.528 194.343 789.548 190.753 C 790.568 187.143 791.588 183.523 792.608 179.903 C 796.398 166.443 796.398 166.443 798.138 160.343 C 798.848 157.803 799.568 155.263 800.268 152.723 C 800.638 151.433 800.998 150.143 801.358 148.853 C 801.678 147.703 801.998 146.543 802.328 145.353 C 803.158 142.713 803.158 142.713 804.158 141.713 Z" fill="black" style="stroke-width: 1px;"/>
  <path d="M 489.156 730.709 C 492.006 732.001 494.056 733.358 496.256 735.573 C 497.086 736.409 497.086 736.409 497.936 737.262 C 498.506 737.843 499.076 738.424 499.656 739.022 C 500.226 739.591 500.796 740.16 501.386 740.746 C 503.756 743.15 506.006 745.506 508.066 748.19 C 509.826 750.309 511.436 751.856 513.536 753.613 C 519.406 758.709 524.836 764.258 530.316 769.768 C 531.466 770.924 532.626 772.08 533.776 773.235 C 536.796 776.253 539.806 779.274 542.816 782.295 C 545.896 785.388 548.986 788.477 552.066 791.567 C 558.096 797.612 564.126 803.659 570.156 809.709 C 569.756 810.175 569.356 810.64 568.946 811.12 C 568.406 811.738 567.876 812.357 567.326 812.995 C 566.546 813.909 566.546 813.909 565.736 814.842 C 564.716 816.048 563.706 817.267 562.726 818.5 C 561.576 819.936 560.366 821.327 559.156 822.709 C 558.496 822.709 557.836 822.709 557.156 822.709 C 556.776 823.58 556.776 823.58 556.386 824.468 C 555.036 826.942 553.526 828.587 551.526 830.573 C 550.806 831.295 550.076 832.018 549.336 832.762 C 548.576 833.508 547.816 834.254 547.036 835.022 C 546.296 835.756 545.566 836.49 544.806 837.246 C 540.696 841.327 536.476 845.21 532.086 848.992 C 528.836 851.89 525.826 855.027 522.786 858.147 C 506.986 874.041 506.986 874.041 500.906 874.522 C 495.566 873.364 492.886 871.191 489.726 866.647 C 489.016 864.209 489.336 863.101 490.156 860.709 C 495.826 852.831 503.526 845.645 511.156 839.709 C 512.846 838.065 514.516 836.396 516.156 834.709 C 517.106 833.851 517.106 833.851 518.066 832.975 C 518.716 832.372 519.366 831.768 520.036 831.147 C 520.656 830.589 521.266 830.031 521.906 829.455 C 523.426 827.762 523.426 827.762 522.856 825.495 C 522.626 824.905 522.396 824.316 522.156 823.709 C 520.366 822.893 520.366 822.893 518.156 822.709 C 516.146 824.07 516.146 824.07 514.346 826.147 C 513.726 826.806 513.096 827.464 512.456 828.143 C 511.186 829.563 509.916 830.987 508.676 832.431 C 503.826 838.058 498.706 843.377 493.476 848.647 C 492.216 849.939 492.216 849.939 490.926 851.258 C 490.106 852.076 489.296 852.894 488.466 853.737 C 487.726 854.477 486.996 855.216 486.246 855.979 C 484.116 857.743 482.906 858.518 480.156 858.709 C 477.906 856.772 477.906 856.772 476.156 854.709 C 477.536 851.612 479.096 849.548 481.526 847.198 C 482.546 846.196 482.546 846.196 483.596 845.175 C 484.336 844.464 485.066 843.754 485.826 843.022 C 487.376 841.504 488.926 839.986 490.466 838.467 C 492.916 836.079 495.366 833.694 497.816 831.318 C 500.186 829.022 502.536 826.711 504.886 824.397 C 505.636 823.686 506.376 822.976 507.136 822.244 C 507.816 821.576 508.486 820.909 509.186 820.221 C 509.786 819.638 510.386 819.055 511.006 818.454 C 512.416 816.743 512.416 816.743 511.846 814.49 C 511.616 813.902 511.396 813.315 511.156 812.709 C 509.356 811.914 509.356 811.914 507.156 811.709 C 505.196 812.945 505.196 812.945 503.406 814.901 C 502.316 815.982 502.316 815.982 501.216 817.085 C 500.446 817.877 499.686 818.67 498.896 819.487 C 498.096 820.287 497.306 821.088 496.486 821.912 C 493.946 824.479 491.426 827.063 488.906 829.647 C 487.196 831.387 485.476 833.126 483.756 834.864 C 479.546 839.133 475.346 843.416 471.156 847.709 C 468.536 846.661 467.366 846.06 465.906 843.584 C 465.666 842.966 465.416 842.347 465.156 841.709 C 465.596 841.284 466.036 840.859 466.496 840.421 C 471.076 835.997 475.626 831.549 480.166 827.085 C 481.866 825.422 483.566 823.766 485.286 822.116 C 487.736 819.744 490.166 817.35 492.596 814.952 C 493.376 814.217 494.146 813.482 494.936 812.725 C 496.876 810.788 498.636 808.987 500.156 806.709 C 500.346 803.295 500.346 803.295 499.156 800.709 C 496.186 800.399 496.186 800.399 494.436 802.076 C 493.796 802.716 493.166 803.355 492.516 804.014 C 491.796 804.735 491.076 805.456 490.336 806.198 C 489.556 806.986 488.786 807.773 487.996 808.584 C 486.796 809.783 486.796 809.783 485.586 811.006 C 483.036 813.567 480.506 816.138 477.976 818.709 C 476.256 820.444 474.536 822.179 472.806 823.912 C 468.586 828.17 464.366 832.437 460.156 836.709 C 456.376 835.195 456.156 834.695 454.156 830.709 C 466.366 818.499 478.576 806.289 491.156 793.709 C 490.496 792.389 489.836 791.069 489.156 789.709 C 485.036 789.278 485.036 789.278 482.266 792.169 C 481.136 793.298 480.026 794.439 478.926 795.588 C 478.326 796.193 477.736 796.798 477.116 797.421 C 475.206 799.362 473.306 801.316 471.406 803.272 C 468.916 805.819 466.426 808.361 463.926 810.901 C 463.326 811.508 462.736 812.115 462.116 812.741 C 451.426 823.574 451.426 823.574 447.156 825.709 C 445.836 824.389 444.516 823.069 443.156 821.709 C 444.556 818.572 446.166 816.455 448.596 814.042 C 449.296 813.342 450.006 812.642 450.726 811.92 C 451.476 811.175 452.236 810.43 453.006 809.662 C 453.786 808.891 454.556 808.12 455.356 807.325 C 457.826 804.865 460.306 802.412 462.786 799.959 C 464.466 798.292 466.136 796.624 467.816 794.955 C 471.926 790.868 476.036 786.787 480.156 782.709 C 479.496 781.389 478.836 780.069 478.156 778.709 C 474.116 778.275 474.116 778.275 471.646 780.87 C 470.746 781.827 469.836 782.785 468.906 783.772 C 465.836 787.008 462.776 790.084 459.396 792.991 C 454.586 797.144 450.126 801.63 445.656 806.147 C 444.426 807.387 444.426 807.387 443.166 808.653 C 441.166 810.669 439.156 812.688 437.156 814.709 C 433.486 813.019 431.766 811.286 429.406 807.959 C 428.796 807.119 428.186 806.278 427.546 805.412 C 425.796 801.998 425.396 800.502 426.156 796.709 C 431.036 789.996 437.486 784.281 443.376 778.471 C 444.346 777.5 445.326 776.529 446.306 775.558 C 450.406 771.475 454.526 767.398 458.636 763.326 C 461.176 760.818 463.706 758.305 466.226 755.79 C 467.636 754.393 469.046 753.002 470.456 751.611 C 475.786 746.306 480.686 740.821 485.366 734.937 C 487.156 732.709 487.156 732.709 489.156 730.709 Z" fill="black" style="stroke-width: 1px;"/>
  <path d="M 141.156 414.709 L 142.156 416.709 C 141.496 416.709 140.836 416.709 140.156 416.709 C 140.346 417.266 140.526 417.823 140.716 418.397 C 141.236 421.108 140.826 423.053 140.156 425.709 C 139.496 425.709 138.836 425.709 138.156 425.709 C 138.366 426.266 138.566 426.823 138.786 427.397 C 139.266 430.369 138.426 432.029 137.156 434.709 C 136.496 434.709 135.836 434.709 135.156 434.709 C 137.436 421.514 137.436 421.514 139.156 415.709 L 141.156 414.709 Z" fill="black" style="stroke-width: 1px;"/>
  <path d="M 734.158 429.709 L 736.158 430.709 C 735.488 434.043 734.828 437.376 734.158 440.709 C 734.008 441.582 733.868 442.455 733.718 443.354 C 733.158 445.709 733.158 445.709 731.158 448.709 C 730.128 444.123 730.308 440.921 731.538 436.397 C 731.948 434.825 731.948 434.825 732.368 433.221 C 733.158 430.709 733.158 430.709 734.158 429.709 Z" fill="black" style="stroke-width: 1px;"/>
  <path d="M 908.159 534.709 L 910.159 535.709 C 910.24 537.334 910.298 538.959 910.346 540.584 C 910.381 541.489 910.416 542.394 910.452 543.327 C 910.355 544.113 910.258 544.899 910.159 545.709 C 909.169 546.369 908.179 547.029 907.159 547.709 C 907.132 545.73 907.112 543.751 907.096 541.772 C 907.085 540.67 907.073 539.568 907.061 538.432 C 907.159 535.709 907.159 535.709 908.159 534.709 Z" fill="black" style="stroke-width: 1px;"/>
  <path d="M 129.156 529.709 C 131.186 533.059 131.376 535.579 131.286 539.459 C 131.266 540.444 131.246 541.429 131.226 542.444 C 131.206 543.191 131.176 543.939 131.156 544.709 C 127.566 540.491 127.816 538.11 128.156 532.709 C 128.486 531.719 128.816 530.729 129.156 529.709 Z" fill="black" style="stroke-width: 1px;"/>
  <path d="M 716.158 499.709 L 718.158 500.709 C 717.908 502.191 717.628 503.67 717.348 505.147 C 717.198 505.971 717.048 506.794 716.888 507.643 C 716.648 508.325 716.408 509.007 716.158 509.709 C 715.168 510.039 714.178 510.369 713.158 510.709 C 713.468 509.063 713.778 507.417 714.098 505.772 C 714.268 504.855 714.448 503.939 714.628 502.995 C 715.158 500.709 715.158 500.709 716.158 499.709 Z" fill="black" style="stroke-width: 1px;"/>
  <path d="M 313.156 182.703 L 315.156 183.703 C 314.166 183.703 313.176 183.703 312.156 183.703 L 313.156 182.703 Z M 310.156 184.703 L 312.156 185.703 C 311.166 185.703 310.176 185.703 309.156 185.703 L 310.156 184.703 Z M 309.156 186.703 L 309.156 189.703 C 307.506 190.363 305.856 191.023 304.156 191.703 C 304.156 190.713 304.156 189.723 304.156 188.703 C 307.156 186.703 307.156 186.703 309.156 186.703 Z M 301.156 190.703 C 303.156 191.703 303.156 191.703 303.156 191.703 L 301.156 190.703 Z" fill="black" style="stroke-width: 1px;"/>
  <path d="M 748.158 380.709 C 749.108 382.879 749.298 384.273 748.558 386.534 C 747.798 388.278 746.978 389.996 746.158 391.709 C 745.498 391.379 744.838 391.049 744.158 390.709 C 744.438 389.228 744.738 387.749 745.038 386.272 C 745.198 385.448 745.358 384.624 745.528 383.776 C 745.738 383.094 745.948 382.412 746.158 381.709 L 748.158 380.709 Z" fill="black" style="stroke-width: 1px;"/>
  <path d="M 143.156 403.709 L 145.156 404.709 C 144.166 407.679 143.176 410.649 142.156 413.709 C 141.496 413.709 140.836 413.709 140.156 413.709 C 140.466 412.229 140.776 410.75 141.096 409.272 C 141.266 408.448 141.446 407.624 141.626 406.776 C 142.156 404.709 142.156 404.709 143.156 403.709 Z" fill="black" style="stroke-width: 1px;"/>
  <path d="M 679.158 158.713 C 682.648 159.823 685.938 160.983 689.158 162.713 L 689.158 164.713 C 685.368 163.713 682.448 162.903 679.158 160.713 C 679.158 160.053 679.158 159.393 679.158 158.713 Z" fill="black" style="stroke-width: 1px;"/>
  <path d="M 856.159 616.709 L 858.159 616.709 L 858.159 618.709 C 857.499 618.709 856.839 618.709 856.159 618.709 L 856.159 625.709 C 855.169 625.709 854.179 625.709 853.159 625.709 C 854.149 622.739 855.139 619.769 856.159 616.709 Z" fill="black" style="stroke-width: 1px;"/>
  <path d="M 350.156 824.709 C 353.506 825.267 356.196 826.061 359.156 827.709 L 359.156 829.709 C 356.186 828.719 353.216 827.729 350.156 826.709 C 350.156 826.049 350.156 825.389 350.156 824.709 Z" fill="black" style="stroke-width: 1px;"/>
  <path d="M 489.156 817.709 L 491.156 818.709 C 487.536 823.584 487.536 823.584 484.156 824.709 C 485.456 821.825 486.816 819.837 489.156 817.709 Z" fill="black" style="stroke-width: 1px;"/>
  <path d="M 322.156 807.709 C 326.036 808.283 328.236 810.196 331.156 812.709 C 327.816 812.152 325.126 811.358 322.156 809.709 C 322.156 809.049 322.156 808.389 322.156 807.709 Z" fill="black" style="stroke-width: 1px;"/>
  <path d="M 147.156 636.709 L 150.156 636.709 C 150.786 639.022 150.786 639.022 151.156 641.709 C 150.166 643.194 150.166 643.194 149.156 644.709 C 148.496 642.069 147.836 639.429 147.156 636.709 Z" fill="black" style="stroke-width: 1px;"/>
  <path d="M 779.158 229.709 L 781.158 230.709 C 780.408 233.647 780.408 233.647 779.158 236.709 C 777.038 237.584 777.038 237.584 775.158 237.709 L 777.158 236.709 C 777.888 234.395 778.558 232.061 779.158 229.709 Z" fill="black" style="stroke-width: 1px;"/>
  <g transform="matrix(0.775949, -0.194334, 0.196633, 0.785124, -502.366364, 324.244385)" fill="black">
    <path d="m1185.65 143.098h2.68c31.08.06 61.07 3.66 91.26 11.19.86.21 1.73.42 2.61.64 59.47 14.85 114.32 43.774 159.39 85.356 1.46 1.309 1.46 1.309 2.96 2.644 18.29 16.398 18.29 16.398 19.54 22.981-1.3 8.759-12.83 16.893-18.97 23.032-1.8 1.795-3.58 3.599-5.38 5.403-1.13 1.146-2.28 2.291-3.42 3.436-.53.538-1.06 1.077-1.62 1.631-3.38 3.377-5.55 4.626-10.31 5.373-5.52-.726-7.99-3.623-11.8-7.5-5.55-5.637-11.16-10.884-17.35-15.829-2.35-1.919-4.57-3.911-6.78-5.984-34.11-30.448-81.86-49.93-125.87-60.25-.72-.171-1.45-.342-2.2-.518-15.48-3.637-30.99-5.759-46.8-7.419-.84-.103-1.68-.205-2.54-.311-7.72-.903-15.45-.888-23.21-.877-.73 0-1.46.001-2.21.001-12.45.021-24.68.665-37.04 2.187-.79.085-1.57.171-2.38.26-35.78 3.923-71.37 13.779-103.63 29.74-.91.451-1.83.902-2.77 1.366-24.48 12.186-47.576 26.474-67.226 45.634-.56.549-1.13 1.098-1.71 1.663-1.77 1.731-3.53 3.469-5.29 5.212-.54.535-1.08 1.071-1.64 1.622-3.01 3.024-5.7 6.156-8.36 9.503-4.02 3.155-6.95 3.425-12 3-7.53-4.308-13.37-11.371-19.08-17.789-3.74-4.182-7.76-8.098-11.77-12.023-4.94-4.861-4.94-4.861-5.65-9.313.53-4.081.88-4.714 3.51-7.582.63-.698 1.27-1.395 1.92-2.113 3.45-3.636 6.95-7.209 10.51-10.743.71-.716 1.42-1.432 2.16-2.17 4.63-4.629 9.43-9.003 14.4-13.267 1.01-.889 2.02-1.778 3.03-2.668 44.51-38.537 100.436-61.928 156.976-76.328.91-.24 1.82-.47 2.76-.71 16.12-3.97 32.86-5.25 49.35-6.9 2.25-.23 4.5-.46 6.75-.72 9.04-.98 18.12-.87 27.2-.86z"/>
    <path d="m1353.59 320.284c2.61 2.285 5.21 4.594 7.76 6.949 2.09 1.925 4.25 3.771 6.43 5.613 11.32 9.847 11.32 9.847 12.25 16.625-.83 7.122-6.41 10.879-11.67 15.234-1.85 1.648-3.43 3.383-5.02 5.266-2.99 3.508-6.14 6.846-9.38 10.125-.9.914-1.8 1.828-2.73 2.77-3.6 3.283-6.21 5.236-11.09 5.855-5.93-.728-9.02-3.706-12.75-8.125-4.35-5.167-9.5-9.155-14.8-13.312-.97-.794-1.94-1.589-2.94-2.407-14.49-11.654-30.7-20.072-48.06-26.593-.82-.31-1.64-.619-2.47-.937-13.36-4.971-26.86-8.121-40.88-10.591-2.13-.378-4.25-.794-6.37-1.222-42.25-7.663-89.98 3.655-127.28 23.75-.92.481-.92.481-1.84.972-16 8.497-29.64 19.894-41.92 33.153-2.63 2.632-4.63 4.491-8.31 5.312-9.66-1.074-17.84-11.796-24.5-18.359-1.3-1.265-2.6-2.521-3.92-3.766-1.91-1.818-3.79-3.664-5.666-5.519-.59-.548-1.18-1.095-1.78-1.659-3.17-3.201-4.44-5.32-4.53-9.896.19-4.073 1.19-6.077 4.15-8.988 1.24-1.25 1.24-1.25 2.51-2.524.92-.9 1.846-1.799 2.796-2.726.98-1.03 1.96-2.064 2.93-3.102 7.95-8.375 16.64-15.266 26.07-21.898.6-.429 1.2-.858 1.82-1.3 80.54-57.274 188.89-60.438 321.19 11.3z"/>
    <path d="m1173.61 380.01c.76-.012 1.53-.025 2.32-.038 18.1-.239 35.11.338 52.66 5.312.92.257 1.85.514 2.8.778 21.81 6.228 39.67 16.695 56.2 32.222.86.755 1.73 1.51 2.62 2.289 6.93 6.31 6.93 6.31 7.38 10.773-.68 5.224-4.39 8.422-8 11.938-.75.745-1.49 1.49-2.26 2.257-1.52 1.525-3.05 3.043-4.6 4.555-1.97 2.011-3.79 4.079-5.59 6.25-.83.969-1.69 1.939-2.55 2.938-.67 0-1.32 0-2 0v2c-2.25 2.437-2.25 2.437-5 5-.63.598-1.24 1.196-1.88 1.812-3.37 1.886-5.3 1.815-9.12 1.188-3.91-2.405-7.28-5.407-10.65-8.52-9.06-8.296-20.75-13.761-32.35-17.48-1.21-.394-2.41-.787-3.65-1.192-16.77-4.95-38.13-5.884-54.35 1.192-.95.41-.95.41-1.91.829-13.17 5.861-24.66 13.512-35.17 23.421-2.38 2.161-3.46 2.697-6.67 3.062-6.26-.602-10.1-4.954-14.07-9.5-3.41-3.872-6.93-7.578-10.64-11.168-.77-.748-1.54-1.496-2.34-2.267-1.53-1.481-3.08-2.953-4.63-4.413-3.09-3.003-5.27-5.13-6.76-9.226.22-3.314.88-4.326 3.19-6.676.98-1.021.98-1.021 1.98-2.062.66-.66 1.33-1.32 2.02-2 .54-.578 1.08-1.155 1.64-1.75 21.09-22.118 47.73-34.667 77.36-40.25 1.35-.262 1.35-.262 2.74-.529 3.76-.545 7.48-.688 11.28-.745z"/>
  </g>
  <ellipse cx="527.425" cy="514.223" rx="36.061" ry="36.061" stroke="black" style="stroke-width: 1px;" fill="black"/>
</svg>